<svg xmlns="http://www.w3.org/2000/svg" width="380" height="308" fill="none" viewBox="0 0 380 308">
  <path fill="#191919" d="M93.704 121.316c-10.288 8.086-9.962-11.648-5.144-9.92 1.094.4 5.09 4.4 5.88 1.836.344-1.11-2.572-13.6-3.674-16.168a49.601 49.601 0 0 0 16.902-23.886c0-1.102-2.938.368-2.938.368.6-1.517.851-3.15.734-4.778a.69.69 0 0 0-1.102 0c-1.838 3.676-6.246 4.4-9.922 4.778-4.4 0-19.844-2.2-25.356.368-2.572 1.102-5.512 4.776-4.4 11.4 0 .736 1.102 5.146 1.836 5.512 2.844-.01 5.638.75 8.084 2.2.368.366 0 .734-.366.734-1.47 0-2.574-.368-3.676-.368-5.144-.366-12.494-.366-13.228 6.248-.736 5.144 1.102 10.29 2.94 14.7 2.2 5.51 14.33 23.518 15.8 24.252a4.86 4.86 0 0 0 1.52-.212c.382 3.868 1.084 7.72 1.788 11.236.366 2.2 2.572 2.572 2.2 0-1.046-3.836-1.762-7.672-2.774-11.508 5.234-1.224 16.324-4.356 18.576-5.762.732-.372-2.584-12.132-3.68-11.03Zm4.044-42.258a.8.8 0 0 1 .734.734c0 2.266-7.068 3.6-7.35 3.676-.366 0-.734-.736-.366-.736.408-.41 5.974-4.01 6.982-3.674ZM79 124.624a.358.358 0 0 1-.226.342.363.363 0 0 1-.142.026c-1.102.368-2.2-.736-2.572-1.47a33.18 33.18 0 0 1-2.2-2.94 22.161 22.161 0 0 0 2.2 8.452 1.225 1.225 0 0 1-1.836 1.47 37.525 37.525 0 0 1-6.248-8.82c-1.764-3.346-3.674-6.614-3.306-10.656 0-.368.734-.736.734 0a28.411 28.411 0 0 0 4.4 9.554 24.678 24.678 0 0 0 2.596 4.042 16.299 16.299 0 0 1-.368-7.35.963.963 0 0 1 1.838-.366c1.664 3.346 5.616 5.796 5.13 7.716Zm-7.71-46.302c-.38.18-.696-.054-.368-.366a12.067 12.067 0 0 1 9.922-2.572 62.15 62.15 0 0 0 8.818.734c.2 0 5.432-.654 3.308 1.47-2.492 1.868-8.074.958-11.024.368a17.048 17.048 0 0 0-10.656.366Z"/>
  <path fill="#191919" d="M113.182 113.232a7.843 7.843 0 0 0 2.938-6.246c0-4.94-4-8.026-7.348-12.128-1.816-2.222-4.042-4.042-6.248-6.246-.368-.368-1.102 0-.734.734 1.47 1.838 2.94 4.044 4.4 5.88 4.324 5.4 6.8 8 7.348 11.024a10.615 10.615 0 0 1-1.47 5.512 2.788 2.788 0 0 0-.734-1.47c-.368-.366-.858-.34-.736.368.962 5.538 2.2 11.76.368 17.638a13.51 13.51 0 0 1-2.94 5.512c-1.47 1.838-3.674 2.574-5.512 4.044-.368.366-.368 1.102.368 1.102 2.572.366 4.776-1.47 6.614-2.94a17.874 17.874 0 0 0 4.052-6.616 26.937 26.937 0 0 0-.366-16.168Zm61 38.218c6.154-1.76 9.948-4.24 22.048-10.29 4.62-1.54 6.818-2.454 8.818-6.614C222 99.268 224.136 76.182 226 70.6c.424-2.176.668-4.384.73-6.6 0-1.104-1.47-1.104-1.838-.368a110.954 110.954 0 0 0-2.2 11.76 262.713 262.713 0 0 1-15.434 49.976c-1.8 4.06-2.94 9.92-6.982 12.126a108.985 108.985 0 0 1-12.494 5.88c-4.45 2.122-8.82 4.776-13.6 6.982-1.104.358-.736 1.094 0 1.094Zm49.976-93.338c-2.2-1.838-4.432-3.278-6.982-5.144a10.498 10.498 0 0 1-3.676-3.308 5.85 5.85 0 0 1 0-5.512 40.921 40.921 0 0 1 2.572-5.88c.736-1.836 1.838-3.674 2.574-5.512.366-.734-.736-1.47-1.47-.734a27.373 27.373 0 0 0-3.308 5.512c-1.47 3.306-3.752 7.358-3.308 11.024a8.825 8.825 0 0 0 4.4 5.88c2.6 1.8 5.512 3.674 8.084 5.144 1.114 0 1.848-.736 1.114-1.47Z"/>
  <path fill="#191919" d="M220.85 39.738c1.21-6.654 1.508-14.188 2.2-18.374.368-2.2.368-4.4.736-6.614.368-1.47.734.368 1.102.736.368 1.47 1.09 2.942 1.47 4.776 1.068 5.152 1.47 10.658 2.2 15.8a.927.927 0 0 0 1.537.59.925.925 0 0 0 .301-.59 58.231 58.231 0 0 0-3.674-22.416 2.75 2.75 0 0 0-2.572-2.2c-2.572 0-2.2 4.4-2.572 5.878a208.517 208.517 0 0 0-1.104 21.682c-.726 1.1.008 1.1.376.732Zm19.476-11.392a9.472 9.472 0 0 1 2.94 4.778 13.898 13.898 0 0 1 0 5.512 1.637 1.637 0 0 0 0 1.838c.368.366.734 0 1.102-.368 1.44-1.44 1.24-5.326.736-7.35a8.582 8.582 0 0 0-4.41-5.512c-.524-.186-.736.736-.368 1.102Zm8.452 27.928a31.246 31.246 0 0 0 2.572-8.084c.668-4.786.736-11.024-2.572-15.066-.368-.736-1.47 0-1.102.734a22.671 22.671 0 0 1 1.102 13.964c-.736 4.4-3.4 8.044-5.144 12.128-.778 1.82 1.85 22.046 2.572 32.336.748 10.656.734 21.314.734 31.97 0 10.29-.722 20.58-1.47 31.236a68.56 68.56 0 0 1-2.572 15.066 22.895 22.895 0 0 1-6.246 9.554 59.416 59.416 0 0 1-12.128 9.554c-2.564 1.482-4.776 2.94-7.348 4.4a50.426 50.426 0 0 0-7.35 4.778c-.736.366 0 1.47.734 1.102a57.757 57.757 0 0 0 13.964-6.982 83.112 83.112 0 0 0 11.4-8.452 38.43 38.43 0 0 0 7.718-9.186 37.523 37.523 0 0 0 3.674-13.964c4.018-29.136 2.334-70.532-2.2-99.586 1.824-.724 3.294-4.4 3.662-5.502ZM8.452 257.282c-.52 7.8-4.764 27.282-6.614 34.908C.186 299 0 298.6 0 300.276c0 .734.734 1.102 1.47.366a15.99 15.99 0 0 0 2.572-6.614c1.07-4.872 5.88-29.064 5.88-36.746-.368-1.104-1.47-1.104-1.47 0ZM231.14 25.774c.734 1.102 1.836 1.838 2.2 2.94a16.454 16.454 0 0 1 1.47 7.35c0 2.554 2.874.2 1.838-4.4a13.603 13.603 0 0 0-2.2-5.144 8.816 8.816 0 0 0-2.94-2.2c-.368.352-.736 1.08-.368 1.454Z"/>
  <path fill="#35927B" d="M134.862 234.498c-.736.368-1.108-.744-.368-1.102 5.478-2.648 73.862-27.56 74.6-27.928-2.938-7.718-24.988-65.042-25.722-67.982a1.328 1.328 0 0 0-.298-.465 1.333 1.333 0 0 0-1.003-.402 1.352 1.352 0 0 0-.537.131c-8.084 5.512-56.958 22.784-58.06 23.152-12.13-12.862-48.874-14.702-64.312-7.718a1.15 1.15 0 0 0-.82 1.1 1.149 1.149 0 0 0 .82 1.1c3.648 1.128 6.12 6.118 6.616 6.614-13.23 4.4-25.474 11.67-33.8 22.782-10.724 14.304-11.8 23.548-28.662 77.904a1.355 1.355 0 0 0 .366 1.104c8.086 1.47 16.536 1.836 24.622 3.306-.64-17.89-.32-38.146 4.4-55.488a91.606 91.606 0 0 1 8.82-22.782c.368-.368 1.102 0 .736.366a59.73 59.73 0 0 0-4.778 13.6c-8.81 26.428-5.726 63.988-5.144 91.866.084 4.042.366 8.086.734 12.128a40.578 40.578 0 0 0 12.494 1.836c3.676 0 27.552-1.572 36.012-2.2 17.624-1.316 69.82-3.674 78.64-2.94a1.178 1.178 0 0 0 1.102-1.102c.184-9.56 4.042-70.554 4.042-74.6a247.463 247.463 0 0 0-30.5 7.72Zm-26.462-36.38a65.022 65.022 0 0 0 8.088 21.682 1.081 1.081 0 0 1 .351 1.025 1.078 1.078 0 0 1-.719.811c-.734 0-1.47-1.47-1.836-1.836-1.47-2.2-2.94-4.778-4.41-7.35a62.995 62.995 0 0 1-4.4-16.536c-1.352-10.782 2.4-21.496 6.614-26.458.336-.4 5.146-4.778 4.778-3.308-.368 1.102-1.872 2.172-2.572 2.94a23.717 23.717 0 0 0-4.042 7.35 42.074 42.074 0 0 0-1.852 21.68ZM97 159.534a9.978 9.978 0 0 1 6.248 2.94.71.71 0 0 1 .107.648.704.704 0 0 1-.475.454c-5.582 0-4.97-2.94-28.296-2.94-.734 0-.366-.734 0-.734 5.124-.394 17.16-1.246 22.428-.368H97Z"/>
  <path fill="#191919" d="M256.494.786c-8.182 0-53.106-.772-60.264 0-4.036.436-8.452 1.102-11.4 4.4a10.956 10.956 0 0 0-2.94 6.248 89.271 89.271 0 0 0 0 14.33c.34 4.046.32 8.132 3.674 11.4 6.526 6.34 17.634 3.124 25.724 3.308a.551.551 0 1 0 0-1.104c-3.308 0-6.982-.366-10.29-.366-6.484 0-12.576-.166-15.434-5.88-1.836-3.674-1.47-8.452-1.47-12.494 0-3.674-.366-8.82 1.47-12.126 1.836-3.306 5.888-4.7 9.556-5.146a125.061 125.061 0 0 1 15.066-.734c55.714 0 59.184-.162 60.632 0a14.136 14.136 0 0 1 9.186 5.88 17.921 17.921 0 0 1 2.2 12.126c-.09.544-.508 9.028-2.572 12.494-3.19 5.354-15.168 5.524-18 5.88h-6.616c-.366 0-1.836 0-1.47.734h.368c5.5.505 11.036.505 16.536 0 3.676-.368 7.35-1.102 9.554-4.042 2.2-2.572 2.522-5.886 2.94-9.186a61.62 61.62 0 0 0 .736-7.718 44.225 44.225 0 0 0 0-6.982 14.648 14.648 0 0 0-7.35-9.554c-1.756-.88-7.57-1.468-19.836-1.468Zm62.47 116.122c8.062.765 16.172.887 24.254.366a26.3 26.3 0 0 0 8.82-1.47 12.138 12.138 0 0 0 6.614-6.614c.594-1.9.843-3.892.734-5.88 0-4.422.104-5.2-.366-6.614 0-.368-.736-.368-.736 0a11.808 11.808 0 0 0-.368 5.144 25.364 25.364 0 0 1-.734 5.512 9.799 9.799 0 0 1-5.512 6.616 34.08 34.08 0 0 1-8.452 1.47c-2.94 0-6.248.366-9.186.366-4.778 0-9.922 0-14.7.368-.732.368-.732.736-.368.736Zm-85.62 77.168c13.672.298 52.114 1.228 60.632.368 4.04-.4 8.13-.668 11.4-2.94 4.102-2.856 4.778-7.35 4.778-11.76.89-14.254 1.066-24.348-13.23-25.354-7.34-.518-14.698 0-22.416 0-19.452 0-18.2.366-21.68.366a.55.55 0 0 0-.552.552.55.55 0 0 0 .552.552c1.47 0 4.042.336 5.88.366 11.028.184 22.046-.712 33.072 0 5.878.38 13.666.346 15.8 7.35 1.898 6.228 1.462 14.698.366 20.946-1.48 8.45-14.332 8.016-20.946 8.084-18 .184-35.644-.368-53.65.368-.374.368-.374 1.094-.006 1.102Z"/>
  <path fill="#35927B" d="M367.47 164.31c-8.158-.814-53-.146-54.018.368-.734.368.368 22.048 1.104 22.048 9.2-.658 53.4-1.036 56.958-1.836 4.434-1 6.98-5.88 6.98-10.29.368-5.88-5.51-9.554-11.024-10.29Z"/>
  <path fill="#191919" d="M214.97 87.878a235.603 235.603 0 0 0-30.868-1.104c-5.144 0-10.288 0-15.432.368a54.208 54.208 0 0 0-7.718.368 45.42 45.42 0 0 0-7.35.366 12.105 12.105 0 0 0-8.818 8.086c-1.47 3.674.378 7.704 3.306 10.288a16.803 16.803 0 0 0 11.76 3.676c18.704 0 30.926.126 49.976-1.104.734 0 .734-1.47 0-1.102a430.993 430.993 0 0 1-43.73.368c-4.042 0-8.8.312-12.86-1.102-3.292-1.148-6.982-4.4-6.982-8.452a9.031 9.031 0 0 1 2.2-5.144 8.34 8.34 0 0 1 5.146-3.676c4.472-.744 9.1.012 14.332-.734 9.05 0-6.824-.368 47.4-.368.006-.2.006-.368-.362-.734Z"/>
  <path fill="#35927B" d="M374.086 11.444C370.43 9.2 366 9.6 361.6 9.6c-71.432 0-74.964.278-74.964 1.838a166.451 166.451 0 0 1-1.104 19.108.8.8 0 0 0 .368 1.47c20.618 1.178 46.566.078 78.64-.368 3.306-.046 6.982 0 9.92-2.2 7.246-4.028 7.648-13.092-.374-18.004Zm2.204 79.74c-3.306-3.306-15.434-4.042-15.434-2.572 0 5.88 0 19.476.736 20.21.98.628 2.152.889 3.306.736a23.675 23.675 0 0 0 6.982-.736 11.035 11.035 0 0 0 7.718-7.716 12.225 12.225 0 0 0-3.308-9.922Z"/>
  <path fill="#191919" d="M357.916 84.938c-6-9-18.476-6.982-26.824-6.982-4.778 0-9.922 0-14.7-.368-30.54 0-45-1.572-51.078 1.47a10.199 10.199 0 0 0-5.88 5.144 11.055 11.055 0 0 0-1.14 3.282c-5.032-.01-7.532-.122-8.046.4v1.102c.504.46 1.157.72 1.838.734 3.588 0 5.118.108 5.916.12-.124 1.888-.038 3.772-.038 5.4-.29 4.56.065 9.139 1.056 13.6-6.218 0-6.72-.108-7.67.368l.05 1.47c.2.2-.924 0 8.302 0a10.231 10.231 0 0 0 5.612 5.512c3.968 1.322 6.506 1.102 23.518 1.102 14.488 0 24-.4 26.09-.366a.55.55 0 0 0 .552-.552.55.55 0 0 0-.552-.552c-2.2 0-4.776-.366-6.982-.366h-22.782c-6.248 0-14.7 1.47-20.212-1.47a10.169 10.169 0 0 1-4.776-9.188c-.368-5.512-1.102-12.86.366-18.374a8.4 8.4 0 0 1 2.574-3.674c4.954-4.954 15.668-3.674 76.8-3.674 4.778 0 9.554 0 13.23 2.572a11.251 11.251 0 0 1 4.776 11.024c.368.368.368.368.736 0a8.196 8.196 0 0 0-.736-7.734Z"/>
  <path fill="#191919" d="M278.544 90.45c-3 8.974.734 17.71.734 14.33.45-1.35.888-17.58-.734-14.33Zm13.962-1.104c-.698 2.446-.366 4.064-.366 12.128 0 2.26.168 3.306 1.836 3.306 1.03-.686.736-1.246.736-7.348 0-11.862-2.646-8.086-2.206-8.086Zm16.904 15.434c.648-.97-.17-20.236-2.572-15.434.2 0-.638 18.654 2.572 15.434Zm11.76-15.066a87.203 87.203 0 0 0-.368 12.126c0 1.104 0 2.94.736 3.676.366.368 1 .352 1.102 0a13.78 13.78 0 0 0 .366-4.042 61.856 61.856 0 0 0-.734-12.128c0-.366-1.102-.366-1.102.368Zm15.8.368c0 .2-1.166 13.2 1.104 15.066 2.672 2.19 1.378-9.948 1.134-11.45-1.042-6.424-2.208-4.416-2.238-3.616ZM201.374 13.648c-1.346 4.04-.256 3.966-1.102 7.35 0 2.2-.368 5.144.734 6.982.368.734 1.104.366 1.104 0 .462-1.388.366-2 .366-10.658 0-1.102-.366-2.2-.366-3.674.366-.368-.368-.736-.736 0Zm13.964-1.102a47.365 47.365 0 0 0-.734 12.126c0 1.102 0 2.94 1.102 3.308h.734c1.102-.736.736-2.2.736-3.308a48.006 48.006 0 0 0-.736-12.126c-.368-.368-1.102-.736-1.102 0Zm28.662.366a87.386 87.386 0 0 0-.366 12.128c0 1.102 0 2.94.734 3.674.368.368 1.076.4 1.184.042.293-1.34.389-2.716.286-4.084a61.837 61.837 0 0 0-.734-12.126c0-.368-1.104-.368-1.104.366Zm15.8.368c0 .2-1.284 18.556 2.2 15.066 1.232-1.844-.468-12.982-1.102-15.434-.168-.672-1.098-.366-1.098.368Zm1.84 153.604c-.288 2.016-.122 14.372 1.47 15.434a.688.688 0 0 0 1.102 0c1.166-1.75-.744-14.178-1.102-15.434 0-.736-1.11-.736-1.47 0Zm14.33.734a87.203 87.203 0 0 0-.366 12.126c0 1.104 0 2.94.734 3.676.368.366 1.102.366 1.102 0 .736-1.102.368-2.572.368-4.042a61.858 61.858 0 0 0-.734-12.128c0-.734-1.104-.366-1.104.368Zm18.374 11.024a57.238 57.238 0 0 0-1.47-11.4c-.232-.752-.914-.432-1.102.368a16.199 16.199 0 0 0-.368 4.042c0 3.91-.248 6.13 0 7.6a4.868 4.868 0 0 0 1.48 3.42.682.682 0 0 0 .551.276.687.687 0 0 0 .551-.276c.726-1.09.358-2.56.358-4.03Zm-45.934-6.614c0 1.838-.368 3.674-.368 5.512v4.042c0 .736.736 1.102 1.47 1.102 2.638 0 .612-6.522 0-10.288-.186-1.148-1.102-.736-1.102-.368ZM180.8 10.708a17.468 17.468 0 0 0-4.778-.368c-7.722.184-15.8-.734-23.518.368a11.94 11.94 0 0 0-6.614 3.674 11.12 11.12 0 0 0 0 13.6c4.544 5.866 14.5 3.674 24.988 3.674a70.533 70.533 0 0 1 8.82 0 .922.922 0 0 0 .828-.919.924.924 0 0 0-.828-.919 42.726 42.726 0 0 0-6.616 0c-2.568.4-5.512.368-8.084.736-7.758 0-11.816.39-15.066-1.47a9 9 0 0 1-2.94-12.126c2.2-3.676 6.614-4.41 10.658-4.41 6.246-.368 12.494.366 18.74 0a20.94 20.94 0 0 0 4.778-.368c-.004-.736-.004-1.104-.368-1.472Zm49.762 2.116a12.919 12.919 0 0 0-.158 1.558c0 3.368-.116 3.926.368 4.41.676.676 1.47-1 1.47-1.47.13-1.492.049-2.995-.24-4.464-.132-.442-1.342-.582-1.44-.034ZM104.73 118.378a4.22 4.22 0 0 0 3.306 1.836c1.838 0 2.2 1.102 1.102 1.838a3.61 3.61 0 0 1-4.776-1.47c-1.268-1.982-1.102-3.674.368-2.204ZM100.32 95.6a2.935 2.935 0 0 0-2.94 1.47c-1.102 1.47-2.022 1.136-1.838-.368a3.506 3.506 0 0 1 3.676-3.306c2.582-.006 2.938 1.83 1.102 2.204Zm1.47 7.344c1.624 0 2.94-.823 2.94-1.838 0-1.015-1.316-1.838-2.94-1.838-1.624 0-2.94.823-2.94 1.838 0 1.015 1.316 1.838 2.94 1.838Z"/>
</svg>
