<svg xmlns="http://www.w3.org/2000/svg" width="396" height="346" fill="none" viewBox="0 0 396 346">
  <path fill="#35927B" fill-rule="evenodd" d="M251.88 172.44h-72.524c-12.46 0-14.334 15.298-.98 15.484 13.354.186 71.432.652 73.504.652 1.292 0 .81-16.136 0-16.136Zm68.55-38.122a13.454 13.454 0 0 0-12.346-13.356c-7.6-.71-173.462-.312-182.234 0-8.772.312-12.89 6.26-13.256 11.568-.258 3.732-.554 14.064 1.064 14.064 4.84 0 203.934.504 206.29.54 1.388.02.482-11.408.482-12.816ZM280.862 140c-7.92 0-8.644-12.36-.44-12.36a6.19 6.19 0 0 1 4.725 1.478A6.2 6.2 0 0 1 280.862 140Zm21.034 0a6.194 6.194 0 0 1-6.259-3.482 6.185 6.185 0 0 1-.182-4.946 6.195 6.195 0 0 1 5.987-3.932c8.158-.006 8.87 12.36.454 12.36Z" clip-rule="evenodd"/>
  <path fill="#191919" fill-rule="evenodd" d="M319.778 192.636a235.365 235.365 0 0 0 .34-41.16c-.138-1.746-2.836-1.418-2.696.328.916 11.352 1.2 34.828-1.064 46.4-2.264 11.572-10.56 10.092-19.714 10.2l-157.14 1.844c-28.082.328-24.518-1.4-24.852-58.274 0-1.25-2.126-1.278-2.2 0-.442 7.764-.778 39.526.496 47.46 2.572 16 18.6 13.54 31.636 13.4l147.334-1.69c16.904-.186 25.85 2.414 27.86-18.508Z" clip-rule="evenodd"/>
  <path fill="#191919" fill-rule="evenodd" d="M256.72 172.638a1.045 1.045 0 0 0-.72.334 1.038 1.038 0 0 0 .806 1.738c13.78.738 27.732-.15 41.414.638 4.868.282 7.174 2.372 7.4 4.584.648 6.56-10.546 5.812-14.4 5.912H257.3c-1.718 0-1.6 2.818.114 2.8 11.75-.096 23.492-.246 35.226-.298 5.6-.026 15.96-.2 15.412-8.4-.444-6.67-8.33-7.052-13.284-7.096-12.02-.106-26.608-.674-38.048-.212ZM144.47 161.54c-.312-.924-1.648-.654-1.958.098-.616 1.502-.766 13.256-.838 15.442-1.8-1.42-3.582-2.83-5.4-4.172-.342-.254-3.238-.254.142 3.08a35.247 35.247 0 0 0 6.556 5.108c1.178.298 5.8-4.96 6.842-5.932 2.526-2.358.4-3.236-.37-3.08a28.287 28.287 0 0 0-4.982 4.258c0-2.71.71-12.774 0-14.874l.008.072Z" clip-rule="evenodd"/>
  <path fill="#191919" fill-rule="evenodd" d="M128.476 189.526c-1.6-.066-1.54-5.2-1.632-6.486-.306-4.258 2.284-2.156 2.284-2.156.738.8.682 5.364.654 6.344a162.155 162.155 0 0 1 27.15.256c-.242-2.84-1.05-6.7.964-6.842 2.014-.142 1.634 2.696 1.662 5.024.026 2.1.51 4.708-.894 4.684-10.204-.174-20.112-.408-30.188-.824Zm67.756-106.202c-.582-.838-5.168-6.8-6.486-6.67-3.664.334-20.622 5.748-18.862 8.288 2.624 10.53 7.278 29.536 8.132 31.862.354.966 1.832.468 1.688-.51-1.018-6.916-5.52-23.234-7.778-31.522a82.277 82.277 0 0 1 16.848-5.8c1.688 1.874 3.35 3.718 5.024 5.678 2.612 1.944 50.8-12.774 55.664-14.08 9.2 29.478 9.348 35.264 13.142 43.232.48 1 1.788.226 1.66-.696-3.478-11.894-8.244-33.752-13.312-44.2-.952-1.984-55.72 14.672-55.72 14.418Z" clip-rule="evenodd"/>
  <path fill="#191919" fill-rule="evenodd" d="M211.46 33.89c5.03 4.45 22.33 25.944 25.774 31.892.536.924-.936 1.644-1.518.894-7.076-9.1-10.944-15.782-24.752-30.954-19.302 13.228-36.674 30.316-39.456 29.322-2.782-.994-6.444-1.646-9.07-2.47a95.279 95.279 0 0 0-11.75 11.538c1.916 2 16.674 18.942 18.08 21.418.576 1.01-.788 2.252-1.532 1.32-11.74-14.728-19.776-21.65-18.636-23.56 1.8-3.014 9.694-10.772 12.6-12.064.412-1.888 8.984 1.42 10.36 1.986.004-.2 37.98-31.012 39.9-29.322Z" clip-rule="evenodd"/>
  <path fill="#191919" fill-rule="evenodd" d="M133.954 74.254c.256-2.2 3.448-17.386 4.868-17.938l8.034-2.428c1.418-3.846 14.362-38.246 15.61-38 5.038.962 36.6 13.82 39.314 15.868.81.6.254 1.964-.694 1.618-12.102-4.4-26.228-11.468-37.98-15.314-.384 2.03-14.306 37.07-14.6 37.368-1.42 1.42-6.53 1.974-8.7 2.542-.142 2.454-2.982 12.348-3.79 15.384l6.812 1.746c1.036.468.894 2.242-.382 2.1.826 0-8.646-1.62-8.492-2.946Zm-41.726-9.48c-1.42.468-5.914 5.918-5.678 7.266a72.422 72.422 0 0 0 4.84 16.436c.666 1.524 31.72-8.288 35.368-9.31a1.07 1.07 0 0 0 .86-1.242 1.066 1.066 0 0 0-1.242-.86 260.413 260.413 0 0 0-33.41 9.4 122.234 122.234 0 0 1-4.386-14.292c.922-1.178 5.82-6.4 5.678-7.352a6970.959 6970.959 0 0 0-8.744-40.15c12.774-2.186 26.086-5.4 38.96-7.892.694 6.416 5.434 25.178 8.514 38 .168.696 1.412.214 1.42-.468.056-4.258-7.322-32.96-8.828-38.972-.562-2.244-38.318 6.6-41.47 7.62-2.624.858 6.868 36.902 8.076 41.854l.042-.038Zm-10.46 37.44c-12.516-9.038-33.712-23.852-47.39-30.344-2.832-1.344-18.294 29.676-18.848 35.028 0 3.036 26.144 16.8 31.92 19.088.1 2.982.184 5.962.284 8.942.6 1.42 6.328 4.262 7.976 4.698 6.922 1.832 9.552 2.512 10.2.582 6.906-20.918 16.212-37.738 15.858-37.994Zm-17.584 37.072a43.467 43.467 0 0 1-14.448-4.968c.17-1.278.212-9.468-1.292-10.248-10.956-5.68-20.31-10.828-31.012-17.3 5.508-14.306 9.936-20.21 17.116-32.472 15.514 9.424 30.09 17.854 45 28.682-3.726 6.62-13.562 29.22-15.364 36.306Zm-3.322 22.126c-17.584-.558-36.574-1.14-54.174-.724-3.562.084 2.424 35.222 3.634 38.844.53 1.588 28.172.966 33.906.1A14.599 14.599 0 0 0 48 205.28c1.022.782 17.542.8 17.882-1.348-3.682-24.78-2.848-42.452-5.02-42.52Zm-11.44 42c-.694-.938-3.916-5.932-4.782-5.976-10.9.326-21.672.426-32.558.61a240.401 240.401 0 0 1-4.556-35.48l52 .8c1 12.774 2.172 26.484 3.932 39.086l-14.036.96Zm44.538 44.602c-9.2-10.68-22.86-29.054-24-28.54a408.213 408.213 0 0 0-45.246 23.346c-3.8 2.318 15.134 27.67 19.088 31.224 2.55 2.29 24.654-13.668 28.57-16.08a20.203 20.203 0 0 0 7.338 4.016c1.24.358 15.67-12.316 14.25-13.966ZM80 259.568c-4.656-1.562-7.348-4.496-8.516-3.748-8.778 5.626-16.932 11.17-27.15 16.89a166.174 166.174 0 0 1-18.158-28.91c14.546-8.516 28.882-14.648 43.74-21.73 3.11 4.5 17.6 22.95 21.886 26.456-3.946 3.874-7.678 7.338-11.802 11.042Zm75.442 26.454c-3.526-2.674-30.4-13.3-37.312-14.746-2.016-.422-27.22 43.268-25.732 44.452a103.407 103.407 0 0 0 34.858 16.762c2.84.726 15.8-28.316 17.512-32.02 1.79 0 4-.44 5.8-.454 1.88-.426 6.376-12.854 4.874-13.994Zm-5.4 12.2c-1.56.1-6.696-.24-7.166.766C138 309.4 132.8 319.688 127.71 330c-14.2-4.258-20.722-7.58-33.282-15.172 0 0 17.03-31.92 24.128-41.442 7.35 2.512 28.838 11.354 35.31 13.836-1.292 3.668-2.582 7.316-3.818 10.992l-.006.008Zm93.45 8.99c-.524-3.86-1.036-9.324-1.56-13.17-.952-2.342-16.138.22-36.362.212-2.356 0 1.264 44.452 1.504 49.136 3.152 3.2 32.914 1.632 32.884-2.23l-2.6-28.966c2.642-1.76 5.198-3.166 6.134-4.982Zm-8.046 4.712c.728 9.6 1.457 19.194 2.186 28.782a129.605 129.605 0 0 1-28.84 1.788c-.256-15.114-2.186-30.456-1.676-46.282 10.916-.084 21.658-.326 32.9-1.106.212 1.434 1.618 11.496 1.106 12.036 0 .458-3.986 2.026-5.676 4.782Zm78.088-36.124c1.418-2.568 2.136-3.718 2.058-4.754-.094-1.248-7.552-11.696-8.7-11.056-5.11 2.838-17.33 14.718-20.4 18.946-.114 2.668 17.428 33.084 19.5 33.778 1 3.72 19.128-15.03 19.048-16.136-.112-1.378-10.272-18.602-11.506-20.778Zm-6.472 35.084a249.992 249.992 0 0 1-18.452-31.734c6.374-6.09 11.61-10.9 18.324-16.52l6.302 8.784-1.69 4c-.426 1.022 9.936 17.514 11.568 20.964a83.41 83.41 0 0 1-16.052 14.51v-.004Zm66.264-78.638c-1.728-1.82-14.036-7.776-16.306-8.586.17-.908.738-5.2.226-5.676a70.223 70.223 0 0 0-9.508-4.542c-1.646 0-12.24 22.218-11.354 22.964 3.2 2.692 24.55 16.67 28.54 18.2 1.296.488 9.384-21.326 8.402-22.36Zm-8.812 19.444c-2.186-1.418-24.114-15.54-26.044-16.2.2-.184 8.516-17.484 9.836-19.868a34.82 34.82 0 0 0 7.096 3.66 18.86 18.86 0 0 0-.1 5.166c0 .582 13.298 7.38 15.868 8.36-2.228 6.266-4.458 12.638-6.656 18.882Zm18.988-77.632c0-1.42-10.416-4.258-12-4.826a13.072 13.072 0 0 0-.554-3.748c-.554-1.12-9.068-4.258-9.778-3.832-1.66.88-5.228 19.098-3.69 19.942 2.618 1.434 20.544 9.114 23.076 8.514 1.432-.336 3.188-15.61 2.946-16.05Zm-3.916 13.638c-6.912-2.384-13.782-5.152-20.636-7.466l3.108-16.434 7.096 2.724c.128.894.34 3.96 1.15 4.258l11.056 4.046c-.656 3.92-1.774 12.148-1.774 12.872Zm1.476-72.424c-.536-.53-11.978-.2-14.662-.284l-3.618-3.378c-1.292 0-7.848-.312-8.446.468-.598.78 3.734 17.042 4.698 18.366.49.672 23.83.666 24.228 0a74.248 74.248 0 0 0-2.2-15.172Zm-20.736 13.368a3353.327 3353.327 0 0 1-4.03-15.128c1.774 0 4.258.27 5.96.112a17.476 17.476 0 0 0 3.308 3.138c4.621.38 9.26.488 13.894.326A83.652 83.652 0 0 0 381.7 129c-6.954-.018-14.406-.36-21.374-.36Zm-8.714-79.478c-.776-.77-12.688 4.144-14.2 4.684a18.165 18.165 0 0 0-3.762-2.414c-.8 0-9.498 3.38-8.658 4.926 2.2 4.034 8.416 13.824 12.136 16.846 1.2.98 20.15-7.098 21.488-8.33 1.566-1.438-5.658-14.376-7.004-15.712ZM338 71.43c-3.946-4.882-7.098-9.934-10.83-15.03l6.174-2.71c.668.412 3.322 2.326 3.932 2.17a78.225 78.225 0 0 0 13.44-4.782c1.902 4.144 4.258 8.288 6.102 12.432C354 64.926 338 71.23 338 71.43Z" clip-rule="evenodd"/>
  <path fill="#35927B" fill-rule="evenodd" d="M.06 96.552c-.37 1 1.108 1.816 1.548.78C12.128 72.552 24.634 56.236 43.42 37.8c.666-.654-.312-1.86-1.066-1.264 0-1.07-28.784 23.288-42.294 60.016Zm164.38 16.902c-3.976-4.17-10.278-10.304-15.228-13.086-.926-.518-1.692.84-.98 1.52 4.8 4.572 9.95 8.146 14.874 13.114.926.934 2.228-.602 1.334-1.548Zm43.116-95.516c-7.918-8.8-25.69-15.6-35.48-17.03a.968.968 0 1 0-.284 1.916c17.74 2.878 24.574 9.138 34.644 16.462.8.58 1.618-.78 1.064-1.418l.056.07ZM81.612 82.046c-2.484-.084-6.036 5.298-6.87 7.096-.448.968 1.178 1.732 1.704.81 2.04-3.578 5.676-5.932 5.988-6.686a.91.91 0 0 0-.822-1.2v-.02Zm-8.63-41.598C62.5 43.058 51.4 54.458 46.182 63.71c-.624 1.106 1.166 1.86 1.8.78a54.114 54.114 0 0 1 25.654-22.424c.808-.34.212-1.834-.654-1.618Zm-6.684 21.786c.838-.242 1.42 1 .8 1.418A27.183 27.183 0 0 0 56.6 75.376c-.544 1.132-2.2.126-1.688-1 1.8-4.036 6.77-10.814 11.354-12.162l.032.02ZM36 127.32c-4.244 4.88-6.52 15.016-6.556 21.304 0 1.078 1.818 1.2 1.902.114.746-9.566 3.16-15.416 6.442-20.21.678-.994-.966-2.156-1.788-1.208Zm-12.834 1.32c-3.462 4.826-5.038 17.684-5.024 23.632a1.001 1.001 0 0 0 1.974 0 66.255 66.255 0 0 1 4.8-22.894c.4-1-1.078-1.702-1.746-.78l-.004.042ZM53.17 303.21c-19.614-13.952-29.678-29.266-39.086-50.6a.841.841 0 0 0-1.088-.488.845.845 0 0 0-.488 1.088c6.018 19.868 22.428 39.5 39.526 51.376.938.652 2.086-.71 1.136-1.418v.042Zm325.01-105.266a.818.818 0 0 0-.816-.709.824.824 0 0 0-.816.709c-.734 5.2-.558 7.854-3.264 12.674-.504.898 1.076 1.8 1.6.908 2.024-3.54 4.248-9.482 3.296-13.582Zm-10.714-1.874c-1.32 2.342-4.6 14.72-5.366 17.442-.322 1.136 1.416 1.418 1.76.342.86-2.7 4.982-14.6 5.18-17.26a.835.835 0 0 0-1.574-.524Zm-44.978 80.288a.913.913 0 0 0-.038 1.149.91.91 0 0 0 1.118.269c4.924-3.378 13.752-12.02 15.526-18 .27-.908-.95-1.816-1.42-.894-.698.284-3.914 9.166-15.186 17.476Zm8.9-25.392c-.952 3.8-7.6 9.786-10.6 11.824-.938.636-1.75-.8-.894-1.42 6.876-4.926 8-9.098 10.062-11.156.118-.478 1.632-.35 1.432.752ZM270.132 323a.939.939 0 0 0 .526 1.8c4.388-1.292 16.846-5.946 20.28-9.438.6-.6-.114-1.83-.88-1.418-.508-.26-10.4 6.164-19.926 9.056Zm-7.182-10.65c-6.312 2.534-8.344 5.052-16.222 4.8a.91.91 0 0 0-.114 1.8 26.127 26.127 0 0 0 13.584-2.698c6.08-3.068 3.634-4.252 2.752-3.902Zm14.194-21.814a77.875 77.875 0 0 1-26.228 5.578c-1.064.026-.938 1.66.128 1.646 7-.096 20.6-2.042 26.838-5.678.868-.506.084-1.76-.738-1.418v-.128Zm-83.17 13.738c-9.088-.524-12.33.546-21.828-2.71-1.078-.37-1.532 1.304-.468 1.702 6.36 2.38 15.8 4.258 22.482 2.556a.8.8 0 0 0-.186-1.548Zm-4.356 18.18c-12.662-.632-19.976-.358-32.388-5.18-1.064-.412-1.902 1.162-.824 1.6 9.332 3.828 23.484 7.066 33.51 5.224 1.02-.184.582-1.6-.298-1.644ZM78.12 293.02c-8.47-3.888-13.722-5.854-19.444-13.8-.724-1-2.23.13-1.532 1.136 4.376 6.322 12.656 13.428 20.536 14.278a.852.852 0 0 0 .44-1.614Zm17.912-10.234c.128 0 2.6 3.534-6.188-.27a55.534 55.534 0 0 1-14.918-9.564c-.892-.8.486-2.022 1.42-1.25 7.224 5.966 12 7.096 19.756 11.084h-.07Zm9.65-12.518c-3.022-2.298-6.158-4.488-9.24-6.712-.964-.696-1.898.904-.936 1.6 3.048 2.172 6.032 4.414 9.098 6.514.8.554 1.902-.766 1.078-1.42v.018ZM28.56 226.144a26.166 26.166 0 0 1-3.704-17.33c.118-.934-1.282-1.094-1.6-.226-2.058 5.538.622 13.702 3.69 18.45.636.992 2.254.124 1.614-.894Zm17.67-3.194a44.861 44.861 0 0 1-5.55-12.55c-.248-.934-1.42 0-1.504.81-.1 2.298 4.252 11.36 5.422 12.6.818.876 2.326.006 1.632-.86Zm347.434-87.838a154.506 154.506 0 0 1-4.882 47.616.854.854 0 0 0 1.646.454c3.678-13.168 6.94-34.43 4.982-48.254 0-.976-1.8-.856-1.746.184ZM327.03 23.714c-.82-.8-2.266.294-1.418 1.15a138.229 138.229 0 0 1 16.49 20.522c.534.8 1.902 0 1.506-.894.494 0-5.37-9.708-16.578-20.778ZM328.2 41c.56.8-.626 1.562-1.278 1-4.264-3.724-15.08-16.51-19.4-21.486-.666-.768.422-1.9 1.134-1.136C313.238 24.278 324.864 36.2 328.2 41Zm34.88 37.13a.876.876 0 0 0-.561-.356.869.869 0 0 0-.859 1.356c6.332 9.8 7.618 16.142 9.538 24.014.238.98 1.6.582 1.632-.34.324-7.314-9.108-24.674-9.75-24.674Zm-8.942.226c-.412-1.078-2.162-.6-1.76.512.758 2.104 4.42 13.034 5.6 14.674.438.612 1.626.456 1.534-.44-.302-2.836-4.184-11.636-5.374-14.746Zm26.2 64.844c-.128-.822-1.652-1.2-1.576-.226a105.817 105.817 0 0 1-1.56 21.728c-.2 1.15 1.532 1.136 1.788 0a85.172 85.172 0 0 0 1.348-21.53v.028ZM152.504 17.584c-4.03-2.738-13.424-1.752-17.898-.114-1.248.456-.81 2.48.47 2.03 9-3.172 13.496-.326 16.946-.27a.892.892 0 0 0 .836-1.207.893.893 0 0 0-.354-.439ZM277.172 75.73c-.154-1.092-1.646-.68-1.76.228-1.284 10.22-.82 20.928-2.342 31.72-.15 1.066 1.7 1.334 1.874.27 1.392-8.52 3.394-23.948 2.228-32.218ZM216.47 5.35c-.892-.8-2.2.442-1.348 1.32 18.336 18.86 24.068 33.428 29.8 49.972.38 1.094 2.506.556 2.2-.568C241.4 35 228.056 15.688 216.47 5.35Z" clip-rule="evenodd"/>
</svg>
