<svg xmlns="http://www.w3.org/2000/svg" width="356" height="382" fill="none" viewBox="0 0 356 382">
  <path fill="#35927B" d="M87.564 303.4s-21.386 5.9-7.4 18.39c18.736 16.724 133.83 12.758 133.83 12.758s54.464 1.4 58.51-18.212c0 0-5.014-16.278-16.452-14.078-11.438 2.2-30.708 7.918-30.708 7.918s14.864 13.144-17.246 8.27c-21.296-3.232-89.4-7.742-89.4-7.742S93.722 306.2 87.564 303.4Z"/>
  <path fill="#191919" d="M194.38 124.076c.698 6.516 1.4 8.016 1.848 11.526a3.272 3.272 0 0 1-5.456 3c-.616-.616-1.672.176-1.144.88 1.848 2.904 6.17 3.878 8.096.44a7.907 7.907 0 0 0 .44-5.2c-.58-3.612-1.45-7.292-2.376-10.822-.188-.7-1.494-.616-1.408.176Zm2.728 3.168c2.53 2.486 7.742 2.112 8.974-1.584.264-.8-.702-1.142-1.232-.704a7.659 7.659 0 0 1-2.904 1.936 5.736 5.736 0 0 1-4.046-.616c-.616-.352-1.324.444-.792.968Zm-19.094 1.408c2.35 2.942 7.4 3.96 10.118.88.44-.44 0-1.496-.704-1.144a7.547 7.547 0 0 1-8.446-.704c-.606-.454-1.396.43-.968.968Zm19.534-8.624c2.046-2.09 4.928-1.492 7.39-2.638a1.653 1.653 0 0 0 .791-1.614 1.655 1.655 0 0 0-1.143-1.386 9.565 9.565 0 0 0-5.542.704 7.004 7.004 0 0 0-3.784 3.168 1.456 1.456 0 0 0 .354 1.907 1.451 1.451 0 0 0 1.934-.141Zm-9.328-.352a9.695 9.695 0 0 0-11 2.2c-.8.968-.098 3.056 1.4 2.464a31.02 31.02 0 0 1 4.224-1.584 28.171 28.171 0 0 1 4.662-.264 1.524 1.524 0 0 0 .714-2.816Zm-6.246 26.046a7.105 7.105 0 0 0 7.302 2.2c.618-.262.44-1.318-.176-1.494-1.056-.176-2.108-.098-3.166-.352a11.934 11.934 0 0 1-3.08-1.496c-.788-.45-1.392.512-.88 1.142ZM172.12 4.678a48.813 48.813 0 0 0 1.318 25.522.783.783 0 0 0 .666.576.78.78 0 0 0 .83-1.016c-1.498-8.462-2.726-16.102-1.496-24.724.176-.798-1.152-1.236-1.318-.358Zm-6.424-3.168a44.61 44.61 0 0 0 1.4 29.212c.444 1.142 2.2.612 1.76-.528a44.365 44.365 0 0 1-1.848-28.332.683.683 0 0 0-.458-.915.682.682 0 0 0-.854.563Zm-6.512 12.406a41.295 41.295 0 0 0 5.632 23.4.909.909 0 0 0 1.584-.88 50.838 50.838 0 0 1-5.72-22.524c0-.964-1.408-.876-1.496.004Zm3.784 28.596c-27.832 12.536-65.87 31.852-81.652 59.128-16.484 28.49.43 60.724 23.4 79.628a112.41 112.41 0 0 0 44.084 22.086 1.099 1.099 0 1 0 .616-2.112c-27.5-7.182-53.316-24.286-66.428-50.066-7.654-15.046-8.834-32.31-.616-47.424 15-27.6 53.226-46.6 81.212-60.096.88-.256.174-1.5-.616-1.144ZM194.644 5.47a82.583 82.583 0 0 1 3.872 25.6.921.921 0 0 0 .924.924.923.923 0 0 0 .924-.924 61.769 61.769 0 0 0-4.4-26.132.712.712 0 0 0-.905-.342.715.715 0 0 0-.415.874Zm8.182 3.254a79.469 79.469 0 0 1 .8 20.942c-.074.968 1.502 1.144 1.672.264a51.482 51.482 0 0 0-.968-21.558c-.184-1.056-1.68-.614-1.504.352Zm7.832 10.12c.31 4.84-.075 9.7-1.144 14.43-.722 3.338-3.6 8.178-2.816 11.526.63 2.724 3.968 3.946 6.072 5.278 25.682 16.258 67.532 45.504 64.758 75.846-2.524 27.6-35.6 53.528-61.416 64.056-1.316.536-.698 2.738.616 2.2 24.634-10.09 51.81-29.568 60.712-55.872 12.024-35.52-28.946-65.412-60.36-85.964-5.232-3.422-5.8-3.304-7.038-6.334-1.4-3.43-.454-2.32 1.056-9.504a57.667 57.667 0 0 0 .968-15.748.705.705 0 0 0-1.22-.405.704.704 0 0 0-.188.491Z"/>
  <path fill="#191919" d="M179.246 10.132a.962.962 0 0 0-1.848.528c2.468 11.526 5.988 23.76-1.144 34.316C170.188 53.954 160.6 61 152.762 68.292 137.726 82.304 122 96.898 110.854 114.428a9.3 9.3 0 0 0-4.056-2.232 9.296 9.296 0 0 0-4.63.004c-.618.164-.528 1.476.266 1.4 1.452-.139 2.916.01 4.31.44.93.374 1.802.881 2.586 1.506a.728.728 0 0 0-.034.43c5.75 28.224 24.674 48.178 40.65 53.424a.973.973 0 0 0 1.166-.532.979.979 0 0 0-.366-1.228c-10.376-5.644-19.352-11.618-26.484-21.292a85.605 85.605 0 0 1-13.444-29.852.833.833 0 0 0 .686-.328c14.2-19.18 30.788-35.468 48.304-51.562 7.476-6.866 17.07-13.902 20.942-23.58 3.872-9.678 1.42-21.254-1.504-30.894Zm79.276 98.898a8.74 8.74 0 0 0-7.972 2.504A554.385 554.385 0 0 1 208.018 65.3c-6.852-8.542-13.6-16.988-16.19-27.892-2.522-10.652-1.4-21.2-1.584-32.026-.014-.88-1.518-1.236-1.672-.266a88.236 88.236 0 0 0 .704 30.62c2.122 10.382 7.472 18.572 13.902 26.836 13.936 17.912 29.452 35.844 46.838 50.644-3.016 4.63-5.566 9.634-8.562 14.292a75.07 75.07 0 0 1-11.704 13.11c-6.622 6.4-12.934 13.11-19.532 19.446-.616.8.44 1.846 1.056 1.144 6.95-6.512 13.55-13.374 20.5-19.974a108.36 108.36 0 0 0 20.59-28.42c.032-.061.059-.124.078-.19a9.909 9.909 0 0 1 6.08-2.098c.792-.1.706-1.326 0-1.496Zm-70.566 146.148c0-1.946-2.374-1.95-2.374 0-.182 1.584 2.374 1.584 2.374 0Z"/>
  <path fill="#191919" d="M230.542 121a13.11 13.11 0 0 0-6.07.88c-.704.264-1.144-.88-.528-1.23a13.444 13.444 0 0 1 6.686-1.672c.233-.485.5-.953.8-1.4a8.533 8.533 0 0 0-5.366-11.966c.711-2.244.951-4.611.704-6.952a5.947 5.947 0 0 0-4.4-4.928c-1.584-.264-3.73.284-4.488-1.144a3.664 3.664 0 0 1-.264-1.672 7.945 7.945 0 0 0-6.336-6.992 7.95 7.95 0 0 0-3.342.042 6.377 6.377 0 0 0-1.496 4.224.724.724 0 0 1-.628.66.718.718 0 0 1-.772-.484 7.588 7.588 0 0 1 .219-3.228 7.589 7.589 0 0 1 1.541-2.844c-.944-5.662-7.334-9.124-14.87-5.982a8.975 8.975 0 0 0-7.654-7.216 10.788 10.788 0 0 0-9.766 4.488A10.422 10.422 0 0 0 158.4 84.482a13.006 13.006 0 0 1 4.222 6.072c.248.708-.868 1.138-1.144.526A11.973 11.973 0 0 0 154 84.658c-10.97-.576-17.168 7.352-16.19 14.078a9.616 9.616 0 0 0-7.3 4.761 9.61 9.61 0 0 0-.45 8.703c-3.518 1.496-7.302 3.52-8.71 7.126-1.4 3.784.264 8.096 2.376 11.528 1.848 3.08 4.488 6.246 8 7.038a19.828 19.828 0 0 1 5.632-2.816c.612-.188 1.144.704.616 1.056-3.42 2.66-5.18 2.89-6.424 4.752a10.78 10.78 0 0 0 5.28 9.854 17.196 17.196 0 0 0 14.43.44 10.602 10.602 0 0 0 6.945 8.936 10.6 10.6 0 0 0 11.055-2.428c.32 4.046.538 8.106.576 12.234 0 1.4 2.256 1.4 2.2 0-.372-9.174-.096-18.768-2.626-27.656.558-.744 0-2.092-1.07-1.732-3 1.056-7.656-.352-7.832-4.134a5.675 5.675 0 0 1 3.848-5.086 5.67 5.67 0 0 1 2.224-.284.71.71 0 0 0 .352-1.318 4.566 4.566 0 0 0-1.172-.38 2.57 2.57 0 0 0 .38-1.2 19.983 19.983 0 0 1 3.52-9.414 6.17 6.17 0 0 1 5.454-2.288 2.442 2.442 0 0 0 2.724-2.028 5.9 5.9 0 0 1 5.375-4.508 5.897 5.897 0 0 1 2.457.372 1.893 1.893 0 0 0 1.495-.088 1.894 1.894 0 0 0 .967-1.144 5.468 5.468 0 0 1 2.656-3.288 5.474 5.474 0 0 1 4.208-.408 2.528 2.528 0 0 0 3.08-1.4 4.235 4.235 0 0 1 2.781-2.836 4.236 4.236 0 0 1 3.905.724c2.2 1.67 2.288 4.4 2.816 6.862 2.846 12.212 6.326 25.912.44 37.132a23.04 23.04 0 0 1-30.356 9.766c-.87-.458-1.496.704-.8 1.32a18.105 18.105 0 0 0 12.278 3.458 81.626 81.626 0 0 0 1.36 11.324 1.224 1.224 0 0 0 1.144 1.142c1.76.09 3.63.552 5.016-.79a.96.96 0 0 0 .136-1.171.95.95 0 0 0-1.104-.413 10.7 10.7 0 0 1-3.102.2 69.068 69.068 0 0 0-1.644-10.486 26.986 26.986 0 0 0 19.13-13.34 11.264 11.264 0 0 0 11.4-10.246 7.631 7.631 0 0 0 9.062-4.134 13.548 13.548 0 0 0 .088-10.648c.092-.1.004-.452-.084-.8Zm-79.276-12.85a.625.625 0 0 1 .44-1.144 7.13 7.13 0 0 0 2.907.668 7.122 7.122 0 0 0 5.354-2.315 7.11 7.11 0 0 0 1.505-2.575c.264-.704 1.426-.616 1.4.176-.124 5.898-7.176 7.586-11.606 5.19Zm35.898-24.284c-3.342.44-7.038 2.376-6.51 6.334.088.704-.968.8-1.144.178-1.144-4.576 3.344-7.744 7.568-7.744.614 0 .792 1.144.086 1.232Z"/>
  <path fill="#35927B" d="M221.92 216.904c-.088-1.232-1.234-.858-2.464-.968-5.728-.514-10.928-19.268-11.526-23.758a204.865 204.865 0 0 1-1.672-26.924 1.359 1.359 0 0 0-.884-1.262 1.358 1.358 0 0 0-1.492.382 20.03 20.03 0 0 0-2.902 8 40.543 40.543 0 0 1-9.856 18.652 10.24 10.24 0 0 1-5.102 3.08c-5.016 1.142-7.466-2.472-9.504-5.8-2.534-4.148-5.116-8.176-7.654-12.32-2.91-4.746-4.432-6.51-9.856-6.51a1.34 1.34 0 0 0-1.286 1.145c-.029.206-.01.417.056.615 4.75 13.022 2.38 48.92-6.776 49.096-.968.02-1.858 5.868 1.056 6.336 12.63 2.024 25.514 4.552 38.186 3.168 10.644-1.164 20.472-1.652 29.828-5.632a2.692 2.692 0 0 0 1.672-2.64l.176-4.66Zm-25.164-25.078c-5 3.718-8.012 11.1-15.486 8.184-6.516-2.542-10.638-11.768-14.342-17.158-.428-.624.618-1.234 1.056-.616 3.54 5 6.954 12.314 12.4 15.4 7.922 4.48 10.092-4.102 15.662-7.04a.71.71 0 1 1 .71 1.23Z"/>
  <path fill="#191919" d="M151.354 214.264a73.44 73.44 0 0 0-1.144-11.966c-.2-1.142-2.02-.706-1.76.528.8 3.78 1.222 7.664 1.672 11.526.078.618 1.232.704 1.232-.088Zm65.726-8.624c.337-4.714.425-9.443.264-14.166 0-1.23-2.022-1.232-1.936 0 .088 4.752-.056 9.508.352 14.166 0 .175.07.343.193.467a.664.664 0 0 0 .934 0 .664.664 0 0 0 .193-.467Zm137.614 104.178a.795.795 0 0 0 .491-.268.794.794 0 0 0 0-1.048.795.795 0 0 0-.491-.268 54.603 54.603 0 0 1-8-1.232 25.764 25.764 0 0 0-1.624-8.412c2.652.524 5.373.602 8.05.23a.75.75 0 0 0 .529-1.277.75.75 0 0 0-.529-.219c-2.904-.088-5.81-.352-8.714-.352a29.55 29.55 0 0 0-3.118-5.336c2.942.206 5.893.254 8.84.144.968 0 .97-1.512 0-1.584a70.85 70.85 0 0 0-9.238-.174.872.872 0 0 0-.576.35 36.167 36.167 0 0 0-4.146-4.302c2-.278 4-.6 5.954-1.064.8-.176.702-1.584-.178-1.496a70.138 70.138 0 0 0-7.312 1.266 51.582 51.582 0 0 0-6.916-4.632 50.913 50.913 0 0 0 5.518-1.298c.968-.264.526-1.6-.44-1.496a44.005 44.005 0 0 0-7.31 1.588c.2 0-3.976-1.938-6.814-3.06a48.202 48.202 0 0 0 9.374-3.896.671.671 0 0 0-.528-1.23 60.326 60.326 0 0 0-10.8 4.38c-3.952-1.46-5-1.644-4.8-1.644a99.23 99.23 0 0 0 9.53-4.76.781.781 0 0 0-.616-1.4 46.85 46.85 0 0 0-7.708 3.656 10.121 10.121 0 0 0-1.442-10.87c-4.4-5.104-11.44-7.92-17.774-9.6-13.2-3.344-27.012-2.374-40.298-.088a244.849 244.849 0 0 0-41.832 10.93c2.234-2.986 2.064-7.086 2.502-10.666.924-6.44 1.364-12.94 1.318-19.446a.88.88 0 0 0-1.758 0 196.979 196.979 0 0 1-1.672 22.79 13.466 13.466 0 0 1-1.056 5.28c-2.2 4.134-7.04 4.752-11.262 5.102-10.815.73-21.671.613-32.468-.35-.088 0-4.4-.09-4.4 0-.8-.618-.968-4.752-1.144-5.72-1.672-8.184-3.43-16.366-4.486-24.726-.176-.616-1.4-.704-1.32.176 1.178 9.94 3.164 19.8 5.184 29.502-21.644-7.176-44.858-10.096-67.48-12.168-9.942-.968-20.852-2.464-30.356 1.672a20.156 20.156 0 0 0-11.452 26.126 78.492 78.492 0 0 0-8.718 3.26.793.793 0 0 0-.6-.526 71.825 71.825 0 0 1-6.952-2.816c-.616-.352-1.232.704-.704 1.232a16.667 16.667 0 0 0 6.142 3.076 82.104 82.104 0 0 0-6.588 3.522c-3.164-.44-6.242-1.232-9.4-1.846a.735.735 0 0 0-.849.502.738.738 0 0 0 .409.898 31.81 31.81 0 0 0 7.45 1.928 72.245 72.245 0 0 0-9.536 7.318 54.834 54.834 0 0 0-8.912-.886c-.8-.088-1.062 1.252-.176 1.496 2.408.55 4.857.906 7.322 1.066a52.282 52.282 0 0 0-7.512 9.126c-2.692-.354-5.3-.956-8-1.218-.88-.174-.966 1.144-.176 1.496a30.36 30.36 0 0 0 7.168 1.472 26.998 26.998 0 0 0-2.648 7.388c-.304 0 .45 0-8.478 1.6a.764.764 0 0 0-.566.825.761.761 0 0 0 .742.671 34.236 34.236 0 0 0 8-1.258 24.29 24.29 0 0 0 .64 9.168c-2.9-.078-5.8.162-8.648.714-.704.088-.528 1.232.176 1.32 1.642.059 3.287.029 4.926-.088a21.975 21.975 0 0 0 4.032-.34 26.6 26.6 0 0 0 3.834 7.264 55.285 55.285 0 0 0-7.69 2.4c-.8.352-.528 1.584.352 1.32a64.058 64.058 0 0 0 8.442-2.32 31.662 31.662 0 0 0 4.186 4.128 115.427 115.427 0 0 1-6.556 5.318c-.704.53-.088 1.76.704 1.234a62.407 62.407 0 0 0 7.252-5.462 43.012 43.012 0 0 0 5.8 3.588 27.661 27.661 0 0 0-6.282 7.064c-.528.88.8 1.584 1.32.8a30.7 30.7 0 0 1 6.518-7.082 60.48 60.48 0 0 0 4.706 2 41.706 41.706 0 0 0-2.688 7.278c-.264.88.878 1.4 1.23.616a46.845 46.845 0 0 0 2.876-7.37c1.958.706 3.944 1.34 5.93 1.93a7.32 7.32 0 0 0-.974 2.8c-.352 1.4-.704 2.728-.968 4.136-.176 1.054 1.232 1.4 1.496.528a67.768 67.768 0 0 1 2.076-6.988c2.23.632 4.47 1.241 6.718 1.828-.4.9-.65 1.91-.964 2.784-.468 1.308-.8 2.728-1.144 4.048-.088.79 1.144 1.142 1.4.35a61.202 61.202 0 0 0 2.378-6.75c2.24.575 4.486 1.128 6.738 1.66-.294 1.314-.534 2.622-.844 3.86-.352 1.494-.88 2.902-1.144 4.4a.667.667 0 0 0 1.232.44 21.648 21.648 0 0 0 2.386-8.314 595.83 595.83 0 0 0 9.2 2.072 92.653 92.653 0 0 0-2.438 9.058.684.684 0 0 0 .5.778.69.69 0 0 0 .82-.426c1-3 1.918-6 2.686-9.072 0 0 3.786.81 5.664 1.2a27.435 27.435 0 0 0-2.014 7.082.904.904 0 0 0 1.012 1.116.901.901 0 0 0 .746-.676 68.882 68.882 0 0 1 2-7.166c2.533.513 5.067 1.009 7.6 1.488a75.22 75.22 0 0 0-2.546 7.63c-.352 1.144 1.32 1.584 1.76.44a67.267 67.267 0 0 0 2.492-7.74c2.88.533 5.763 1.045 8.648 1.534a54.796 54.796 0 0 0-2.254 7.526.866.866 0 0 0 1.272.967.866.866 0 0 0 .4-.527 49.882 49.882 0 0 0 2.132-7.704c2.792.467 5.587.913 8.386 1.338a44.235 44.235 0 0 0-2.95 9.18c-.088.88 1.054 1.498 1.494.618a43.945 43.945 0 0 0 3.03-9.562c2.533.379 5.067.741 7.6 1.086a44.25 44.25 0 0 0-1.744 7.946c-.088.968 1.32.968 1.584.176a41.947 41.947 0 0 0 1.762-7.906c2.424.324 4.847.633 7.27.928a90.39 90.39 0 0 0-1.906 8.916c-.176.966 1.232 1.4 1.496.438a87.178 87.178 0 0 0 1.94-9.17c.556.066 4.8.54 6.374.704a31.55 31.55 0 0 0-1.186 5.122c-.176.88 1.054 1.496 1.496.618a17.05 17.05 0 0 0 1.448-5.56c2.467.248 4.933.479 7.4.694a35.58 35.58 0 0 0-1.812 8.384c-.088.968 1.4 1.144 1.672.264.75-2.748 1.342-5.656 1.924-8.494 2.037.171 4.075.33 6.114.478a14.994 14.994 0 0 1-.824 4.85.815.815 0 0 0 1.496.614 10.357 10.357 0 0 0 1.012-5.344c1.905.133 3.811.256 5.718.368a53.264 53.264 0 0 1-2.506 7.264.901.901 0 0 0-.048.728.902.902 0 0 0 .503.53.915.915 0 0 0 1.03-.231.912.912 0 0 0 .187-.323 36.99 36.99 0 0 0 2.534-7.87c2.173.124 4.348.234 6.524.33a48.342 48.342 0 0 0-.876 9.124c0 .8 1.4 1.054 1.496.176.372-3.112.61-6.2 1.03-9.23 2.587.108 5.173.197 7.758.266-.07 2.442-.47 4.948-.428 7.38a.725.725 0 0 0 .628.66.718.718 0 0 0 .772-.484c.505-2.471.713-4.994.618-7.514 3.173.076 6.347.126 9.522.15-.6 2.102-1.376 4.2-1.78 6.308-.176.88 1.056 1.496 1.496.616a31.935 31.935 0 0 0 2.084-6.916c2.173.008 4.348.003 6.524-.014a44.193 44.193 0 0 0-.954 6.666.802.802 0 0 0 .711.813.799.799 0 0 0 .873-.637c.458-2.266.766-4.6 1.016-6.858 1.664-.017 3.331-.044 5-.08a76.08 76.08 0 0 0-1.258 8c-.072.882 1.32 1.056 1.584.176a64.517 64.517 0 0 0 1.446-8.2c2.624-.063 5.249-.144 7.874-.244-.182 3.23-.874 6.544-.874 9.772 0 .88 1.4 1.144 1.584.176.629-3.302.951-6.655.962-10.016 2.677-.109 5.355-.239 8.034-.39-.109 1.541.002 3.09.33 4.6a.714.714 0 0 0 1.4-.174c.038-1.512.086-3.018.032-4.528 1.808-.108 3.615-.225 5.422-.352.252 3.6.2 7.182.53 10.774a.84.84 0 0 0 .836.78.838.838 0 0 0 .836-.78 47.052 47.052 0 0 0-.614-10.888 501.22 501.22 0 0 0 6.83-.542c.065 1.735.221 3.466.47 5.184.176.878 1.4.614 1.496-.178a22.599 22.599 0 0 0-.336-5.148c2.587-.231 5.17-.479 7.75-.746a41.61 41.61 0 0 0 1.12 10.03c.264.88 1.65.706 1.584-.176-.248-3.36-.786-6.654-1.228-10.01 2.356-.253 4.719-.527 7.09-.822a17.857 17.857 0 0 0 1.09 5.73c.264.704 1.496.704 1.4-.176a37.765 37.765 0 0 0-.828-5.766 303.78 303.78 0 0 0 5.156-.708 28.514 28.514 0 0 1 3.854 8.936c.264 1.144 2.024.704 1.76-.528a22.49 22.49 0 0 0-3.838-8.67c2.533-.384 5.059-.803 7.578-1.256a63.64 63.64 0 0 1 3.826 8c.352.8 1.48.18 1.32-.528a22.661 22.661 0 0 0-3.532-7.762c2.6-.488 5.19-1.021 7.77-1.6 1.344 2.858 2.7 5.708 4.298 8.4a.692.692 0 0 0 .826.225.684.684 0 0 0 .406-.753 42.064 42.064 0 0 0-3.9-8.248 173.809 173.809 0 0 0 7-1.8 61.854 61.854 0 0 0 3.76 5.906.783.783 0 0 0 .476.349.764.764 0 0 0 .806-.292.783.783 0 0 0 .038-.857 27.519 27.519 0 0 0-3.496-5.564 153.297 153.297 0 0 0 7.448-2.36c.894 2.338 1.658 4.812 2.736 7.132.352.88 1.582.176 1.4-.616a26.506 26.506 0 0 0-2.742-7 130.781 130.781 0 0 0 6.022-2.322 23.903 23.903 0 0 0 4.022 6.338.728.728 0 0 0 1.144-.88c-1.104-2.05-2.492-4.032-3.718-6.068a117.903 117.903 0 0 0 6.92-3.24 14.772 14.772 0 0 0 3.662 6.054.8.8 0 0 0 1.23-.968 38.695 38.695 0 0 1-3.324-5.9 105.65 105.65 0 0 0 6.726-3.888 31.573 31.573 0 0 0 5.4 5.388c.704.528 1.32-.528.8-1.056-1.528-1.834-3.322-3.4-4.978-5.108a96.343 96.343 0 0 0 7.568-5.466 14.198 14.198 0 0 0 4.888 3.536c.8.352 1.144-.88.528-1.232a36.86 36.86 0 0 1-4.27-3.234c2.454-2.03 4.786-4.2 6.108-5.548a12.272 12.272 0 0 0 6.434 3.854.778.778 0 0 0 .947-.534.781.781 0 0 0-.507-.962 13.142 13.142 0 0 1-5.814-3.48 43.121 43.121 0 0 0 3.582-4.504 20.13 20.13 0 0 0 5.486 2.97c.8.262 1.232-.968.528-1.322-1.744-.91-3.49-1.82-5.18-2.9a41.862 41.862 0 0 0 2.432-4.336c2.856 1.214 5.8 2.504 8.82 3.454.8.264 1.32-.968.616-1.4a77.313 77.313 0 0 0-8.788-3.454 37.607 37.607 0 0 0 1.25-3.268 46.616 46.616 0 0 1 9.21.74.752.752 0 0 0 .691-.571.757.757 0 0 0-.339-.829 18.265 18.265 0 0 0-9.056-1 31.32 31.32 0 0 0 1.132-7.364 20.632 20.632 0 0 0 8.032 1.19Zm-294.232-52.88c8.712-6.072 20.062-4.84 30.092-3.96a410.871 410.871 0 0 1 71.534 12.222 252.193 252.193 0 0 0 29.212 1.32c4.936-.134 11.744.352 16.628-2.05 22.412-6.946 46.49-15.018 70.304-13.876 10.734.528 42.234 5.8 31.06 22.8-6.072 9.15-17.07 14.958-26.748 19.356-20.672 9.45-45.6 13.042-48.04 14.138a28.478 28.478 0 0 0-6.852.268c-10.702-8.214-24-13.688-37-18.188 17.88-7.47 28.758-14.374 65.93-21.294.968-.176.53-1.564-.352-1.4a270.451 270.451 0 0 0-38.8 9.15c-9.916 3.364-20.676 7.152-29.8 12.518a365.788 365.788 0 0 0-77.8-17.532c-.88-.088-.884 1.43.088 1.582 36.622 5.766 84.936 15.866 115.706 36.6-.313.38-.581.793-.8 1.234a13.497 13.497 0 0 0-2.474 9.06c-25.83-3.65-56.69-6.2-82.962-7.652-22.252-1.4-33.664-.066-60.184-11.878-8.446-3.696-17.246-7.92-22.524-15.75-5.896-8.718-5.28-20.332 3.782-26.668Zm44.962 64.318a6.669 6.669 0 0 0 3.344 1.496 66.782 66.782 0 0 0 50.264-8.07c58.174 4.212 64.628 7.8 66.144 6.6 8.098 3.458 16.536 4.87 24.9 6.658 9.062 1.936 19 2.638 27.188-1.848a7.089 7.089 0 0 0 2.64-2.2 5.364 5.364 0 0 0-.528-5.896 14.053 14.053 0 0 0-5.016-3.694c-9.35-4.6-19.88-5.866-30.308-6.724a176.016 176.016 0 0 0 49.878-17.922c11.444 8.584 13 16.54 7.97 27.638a46.177 46.177 0 0 1-19.972 20.412c-18.566 10.382-40.386 11.174-61.152 11.614-45.226.968-91.154 1.936-135.324-9.062-11.174-2.816-24.286-5.896-30.444-16.718a19.769 19.769 0 0 1-1.672-17.07c2.18-5.578 6.778-9 11.57-12.228 9.636 6.476 28.16 13.374 39.44 15.922a9.926 9.926 0 0 0 1.078 11.092Zm228.416 10.91c-9.766 9.856-23.316 17.6-36.162 22.614-15.222 5.894-31.5 8.536-47.69 10.382a546.659 546.659 0 0 1-205.8-15.31c-9.064-2.462-18.478-5.454-25.43-12.142-6.6-6.246-10.118-15.222-7.302-24.108a29.263 29.263 0 0 1 2.502-5.586.765.765 0 0 0 .316-.538c7.178-11.964 24.34-23 38.062-27.436a31.457 31.457 0 0 0 11.54 13.492c-7.072 4.524-13.184 10.268-13.442 19.276-.264 9.59 6.248 17.772 14.254 22.26 10.472 5.8 23.4 7.918 35.108 10.2 38.376 7.464 79.178 6.892 118.6 5.984 22.702-.528 47.074-.968 67.048-13.462 9.062-5.632 16.98-14.166 19.884-24.724a18.45 18.45 0 0 0-.352-13.2 31.029 31.029 0 0 0-9.454-11.156 49.545 49.545 0 0 0 15.432-13.702c12.098 3.902 25.936 10.308 31.6 22.4 5.54 11.88-.002 26.046-8.714 34.756Z"/>
</svg>
