<svg xmlns="http://www.w3.org/2000/svg" width="290" height="381" fill="none" viewBox="0 0 290 381">
  <path fill="#35927B" d="M116.282 37.518a5.312 5.312 0 0 0-5.102 6c.3 3.302.6 6.904.6 10.2a4.105 4.105 0 0 0 2.856 3.73 4.099 4.099 0 0 0 1.646.172c9-.6 12.6-3.902 12.308-10.8-.602-7.202-4.804-9.302-12.308-9.302Zm1.202 28.514a4.508 4.508 0 0 0-3.902 4.502c.3 4.2.6 7.8.9 11.706.062.638.267 1.253.6 1.8a71.122 71.122 0 0 1 15-15c-2.094-2.408-6.296-3.608-12.598-3.008Z"/>
  <path fill="#35927B" d="M93.17 20.4c-15.908 6-28.514 16.2-34.218 30.016a54.486 54.486 0 0 0 2.102 34.518 55.449 55.449 0 0 0 20.4 25.514 80.99 80.99 0 0 1 22.512-2.4 89.269 89.269 0 0 1 3.902-11.706l.9-1.8-11.106 1.5a1.687 1.687 0 0 1-2.1-1.8c0-.902.6-2.102 1.5-2.102a8.679 8.679 0 0 0 6.6-8.704c-.3-5.704-2.702-33.618-3.302-39.622a8.68 8.68 0 0 0-8.104-7.8c-1.2 0-1.8-.9-2.102-2.1a2 2 0 0 1 1.8-2.102l15.908-.3h1.8l-.3-5.704a5.077 5.077 0 0 1 2.504-5.372 5.082 5.082 0 0 1 1.998-.628c2.7 0 4.8 2.702 5.102 6l.3 5.704c10.506.6 16.81 6.304 17.4 14.4a13.37 13.37 0 0 1-5.704 12 2.42 2.42 0 0 0 .6 4.2 15.752 15.752 0 0 1 5.4 3 71.874 71.874 0 0 1 8.4-3.902 96.505 96.505 0 0 1 18.91-4.502c-.3-1.502-.9-3-1.2-4.2C153.502 24.31 122.286 9.902 93.17 20.4Zm94.55 126.676c9.6 0 14.4-3.302 15-9.906.6-6.904-3.6-10.8-14.106-11.4a4.36 4.36 0 0 0-4.502 4.2c-.302 4.2-.6 8.4-.6 12.306a4.122 4.122 0 0 0 4.208 4.8Zm.902-30.316c9.6.6 13.8-2.102 14.106-9.306.6-7.504-3.3-10.506-11.4-11.4a5.78 5.78 0 0 0-6.304 5.4c-.3 3.6-.6 7.2-.6 10.504a4.458 4.458 0 0 0 1.085 3.287 4.458 4.458 0 0 0 3.113 1.515Z"/>
  <path fill="#35927B" d="M232.444 107.754c-10.2-27.914-41.422-42.322-70.536-31.816a58.374 58.374 0 0 0-34.52 33.918c.045.423-.061.848-.3 1.2a62.324 62.324 0 0 1 12.6 4.2 61.465 61.465 0 0 1 30.616 30.918 7.183 7.183 0 0 0 1.5-4.2c.3-6 2.102-35.118 2.4-41.422a9.018 9.018 0 0 0-7.2-9.304 2.281 2.281 0 0 1-1.8-2.4 1.915 1.915 0 0 1 .768-1.475 1.932 1.932 0 0 1 1.632-.325l18.6 2.4.3-5.702c.3-3.302 2.702-6 5.4-5.4 2.7.302 4.8 3.6 4.502 6.904l-.3 5.704c10.8 2.1 16.508 9 15.908 17.4a13.727 13.727 0 0 1-7.8 11.708 2.552 2.552 0 0 0-.988 3.564c.238.396.58.721.988.938 6.302 3.302 8.704 8.104 8.4 13.8-.6 7.506-6.6 15.31-20.71 16.21l-.302 6.302c-.3 3-2.4 5.704-5.102 5.704a4.8 4.8 0 0 1-4.502-5.704l.3-6.302h-9a55.74 55.74 0 0 1 2.4 18.6 462.39 462.39 0 0 1 45.624-8.104c13.524-16.194 18.326-37.806 11.122-57.316ZM116.282 153.68c-4.502-5.704-9.304-5.4-15.908-.902a5.462 5.462 0 0 0-.9 8.104c2.102 2.702 4.502 5.704 6.6 8.4a4.66 4.66 0 0 0 6.302.9c7.208-5.998 8.41-10.8 3.906-16.502Zm19.812 21.92c-4.2-5.4-9.906-5.702-18 .902a4.62 4.62 0 0 0-.6 6.302c.9 1.2 1.8 2.102 2.7 3.302 6-1.5 12-3.302 18.31-4.8a11.725 11.725 0 0 0-2.41-5.706Z"/>
  <path fill="#35927B" d="M164 159.382c-10.2-27.914-41.414-42.322-70.53-31.816-29.716 10.8-45.324 43.522-35.118 72.638.6.9.9 2.102 1.5 3 12.6-3.6 29.716-8.704 48.326-13.8-1.2-1.2-13.8-17.4-17.708-22.212a9.56 9.56 0 0 0-11.708-2.1 2.32 2.32 0 0 1-3-.6 2 2 0 0 1 .3-3l15.308-10.8-3.6-4.502c-2.102-2.702-2.102-6.304.3-7.8a6.018 6.018 0 0 1 7.8 2.102l3.6 4.502c9.6-5.702 18.31-4.502 23.412 2.4a14.12 14.12 0 0 1 2.877 6.622 14.121 14.121 0 0 1-.775 7.178 2.508 2.508 0 0 0 .497 2.562 2.518 2.518 0 0 0 2.503.738 14.36 14.36 0 0 1 15.6 4.504 15.743 15.743 0 0 1 3.302 9.904c6.6-1.8 13.2-3.302 19.81-4.8a42.364 42.364 0 0 0-2.696-14.72Z"/>
  <path fill="#191919" d="m287.974 307.362-7.8-32.118a15.445 15.445 0 0 0 6.904-5.102 11.358 11.358 0 0 0 1.8-8.706l-11.106-45.624c-.902-3.902-5.4-7.2-13.508-6.302l-7.506-30.91c-4.2-17.108-6-17.4-23.412-15.6h-.902a71.57 71.57 0 0 0 11.4-17.71 63.316 63.316 0 0 0 1.502-47.424 60.543 60.543 0 0 0-32.118-34.518 64.855 64.855 0 0 0-16.508-4.8 87.668 87.668 0 0 0-21.912-2.4 55.712 55.712 0 0 0-3.302-15.6A59.105 59.105 0 0 0 140.6 7.2a60.728 60.728 0 0 0-15.908-4.8 86.482 86.482 0 0 0-48.63 2.4 65.41 65.41 0 0 0-36.32 33.618 60.598 60.598 0 0 0-1.502 47.424c4.8 12 14.71 22.512 27.916 29.716a68.799 68.799 0 0 0-31.516 32.418 60.653 60.653 0 0 0-4.8 15.908C4.924 172.6-1.68 187 .72 197.8l37.822 157.586a31.012 31.012 0 0 0 15.308 19.21A47.426 47.426 0 0 0 76.662 380a73.424 73.424 0 0 0 25.514-4.8c39.02-13.508 122.464-33.618 162.386-39.022 12.906-1.8 19.2-4.2 22.212-8.704 4.502-5.104 3.002-12.308 1.2-20.112Zm-3.6-44.724a6.285 6.285 0 0 1-1.2 5.102l-.9.9a14.547 14.547 0 0 1-8.104 3.6c-.902 0-1.8.3-2.702.3a281.602 281.602 0 0 0-40.222 9.906c-3 1.2-3.6.9-3.902.9-.942-.942-10.8-43.032-10.8-43.222 3.818-3.818 37.882-10.478 42.924-11.4l4.502-.902a17.932 17.932 0 0 1 3.6-.6 22.487 22.487 0 0 0 4.8-1.5 10.82 10.82 0 0 0 3-2.102l9.004 39.018ZM43.944 40.518A58.304 58.304 0 0 1 77.562 9.302a73.902 73.902 0 0 1 18.31-4.2c-.6.3-.9.3-1.5.6a65.418 65.418 0 0 0-36.32 33.618 60.601 60.601 0 0 0-1.502 47.426 58.613 58.613 0 0 0 19.212 25.512 31.646 31.646 0 0 0-3.902 1.502c-13.8-6.904-24.314-17.4-29.116-29.116a56.32 56.32 0 0 1 1.2-44.126Zm181.6 123.066c-1.2 0-2.702.3-3.902.3-13.508 1.8-29.116 4.504-45.626 8.104a64.723 64.723 0 0 0-2.4-18.61c-.3-1.2-.902-2.7-1.2-3.9a20.912 20.912 0 0 1-1.5-3.904 61.457 61.457 0 0 0-30.62-30.916 69.027 69.027 0 0 0-12.6-4.2 1.797 1.797 0 0 1 .3-1.2 57.056 57.056 0 0 1 3.904-11.4 61.677 61.677 0 0 1 35.118-32.718 59.687 59.687 0 0 1 20.4-3.6 56.964 56.964 0 0 1 54.03 37.22 61.602 61.602 0 0 1-15.906 64.824h.002Zm-58.232 10.8c-6.6 1.5-13.2 3-19.81 4.8-3 .6-6 1.502-8.706 2.102-6.302 1.5-12.306 3.302-18.308 4.8-3.902 1.2-7.8 2.102-11.708 3.302-18.6 5.104-35.718 10.2-48.326 13.8-.6-.9-.9-2.102-1.5-3l-1.8-3.6a59.45 59.45 0 0 1 1.2-45.924A61.68 61.68 0 0 1 93.47 117.96a59.683 59.683 0 0 1 20.412-3.6 56.96 56.96 0 0 1 54.028 37.22 62.147 62.147 0 0 1 3.6 21.912c-1.498.308-3 .598-4.2.908l.002-.016ZM165.2 61.53a66 66 0 0 0-37.82 35.118 79.426 79.426 0 0 0-4.502 13.508 72.766 72.766 0 0 0-14.108-2.102 69.225 69.225 0 0 1 3.6-10.2 61.68 61.68 0 0 1 35.12-32.718 74.865 74.865 0 0 1 20.4-4.502l-2.69.896Zm-.3-4.8a96.547 96.547 0 0 0-18.91 4.502 71.63 71.63 0 0 0-8.4 3.902 47.332 47.332 0 0 0-7.2 4.502 64.792 64.792 0 0 0-15 15 69.884 69.884 0 0 0-6 10.2l-.902 1.8a59.756 59.756 0 0 0-3.902 11.706 94.099 94.099 0 0 0-22.512 2.4 50.65 50.65 0 0 1-20.4-25.514 56.649 56.649 0 0 1-2.102-34.518 49.014 49.014 0 0 1 3.302-9.304A58.312 58.312 0 0 1 96.472 10.2a55.188 55.188 0 0 1 71.138 31.82 49.34 49.34 0 0 1 3 14.4 17.724 17.724 0 0 0-5.702.308l-.008.002Zm-70.228 56.128-2.702.9a65.982 65.982 0 0 0-37.82 35.118 63.155 63.155 0 0 0-1.502 49.528 60.377 60.377 0 0 0 3 6.302c-3.6.9-6.6 1.8-9.304 2.702-.6.3-1.2.3-1.8.6a52.109 52.109 0 0 1-6.904-11.706 59.46 59.46 0 0 1 1.2-45.924 61.675 61.675 0 0 1 35.12-32.718 71.62 71.62 0 0 1 20.712-4.802Zm-65.136 56.13c-.3 3.896-.3 7.81 0 11.706a35.012 35.012 0 0 0-19.81 23.412C7.624 202-1.08 178.892 29.536 168.988ZM284.072 324.77c-2.1 3.302-8.104 5.4-19.2 6.904-39.922 5.4-123.966 25.814-163.286 39.322-17.4 6-33.318 6-45.026-.302-6.902-3.902-11.706-9.6-13.2-16.2L8.226 208.908c.6 2.102 7.2 3.6 8.704 4.2a45.236 45.236 0 0 0 12.6 1.502 56.142 56.142 0 0 0 17.71-3c3.6-.9 8.104-2.4 12.906-3.902 39.322-11.4 120.966-35.418 168.4-39.922 4.8-.6 14.4-3.302 18.91-.3 1.8 1.2 3 4.502 4.8 12l10.506 43.822c-15.61 3-31.218 5.4-45.926 11.4-5.102 2.102-5.702 3.302-4.502 9l9 37.22a8.943 8.943 0 0 0 3.6 6.302 8.768 8.768 0 0 0 2.702.6c3.902 0 7.8-2.1 11.706-3.302 4.2-1.2 8.4-2.4 12.6-3.3 7.504-1.8 15.308-3.6 23.112-4.8h.9l7.8 31.818c1.82 8.42 2.42 13.524.318 16.524Z"/>
  <path fill="#191919" d="M256.758 252.132a10.404 10.404 0 0 0-5.4-6.904 13.235 13.235 0 0 0-17.108 4.2 9.605 9.605 0 0 0-1.733 4.024 9.61 9.61 0 0 0 .231 4.376c1.502 6.304 8.706 9.6 14.708 8.106 5.7-1.496 10.802-7.5 9.302-13.802Zm-15.308-38.12a2.282 2.282 0 0 0 2.7 1.5 2.14 2.14 0 0 0 1.325-1.032 2.141 2.141 0 0 0 .177-1.67 89.9 89.9 0 0 0-7.2-23.112c-1.5-2.702-5.4-.3-3.902 2.4a81.022 81.022 0 0 1 6.9 21.914ZM218.038 182.8c-9.906.6-19.212 3.6-28.816 6-2.702.6-1.502 5.102 1.2 4.2 9-2.4 18.31-5.4 27.616-6a2.356 2.356 0 0 0 1.707-.693 2.357 2.357 0 0 0 .693-1.707 2.685 2.685 0 0 0-2.4-1.8ZM138.8 208.308c9.6-2.702 18.91-5.4 28.516-8.104 2.702-.9 1.5-5.102-1.2-4.2-9.306 2.702-18.91 5.4-28.516 8.104-2.708.598-1.506 4.8 1.2 4.2Zm-54.034 16.208c9-3 18.01-5.4 27.014-8.104 2.702-.9 1.502-5.102-1.2-4.2-9 2.702-18.01 5.104-27.014 8.104a2.192 2.192 0 0 0-1.696 1.854 2.185 2.185 0 0 0 2.018 2.465c.298.021.596-.02.878-.119Zm-28.216 3.002a78.817 78.817 0 0 1-14.706 2.102 56.918 56.918 0 0 1-15.91-1.2c-2.7-.6-3.902 3.6-1.2 4.2a66.3 66.3 0 0 0 20.412 1.2 91.823 91.823 0 0 0 12.6-2.102c3.008-.298 1.806-4.8-1.196-4.2Zm205.91 63.934a97.092 97.092 0 0 1 2.102 10.2c.388 5.774-1.272 7.314-2.102 8.104a17.362 17.362 0 0 1-6.302 2.4 59.215 59.215 0 0 1-9.6 1.5 2.4 2.4 0 1 0 0 4.8c5.704-.6 11.706-1.2 16.81-3.6 4.502-2.4 6-6.6 6-11.4a48.901 48.901 0 0 0-2.4-13.2c-.606-2.706-5.108-1.504-4.508 1.196Zm-39.92 25.514c-8.77.96-17.486 2.362-26.114 4.2a2.283 2.283 0 0 0-1.502 2.702 2.14 2.14 0 0 0 1.849 1.582c.287.03.577.002.853-.082a239.202 239.202 0 0 1 24.914-3.902 2.363 2.363 0 0 0 2.4-2.4 2.326 2.326 0 0 0-2.4-2.1Zm-49.526 9.906c-7.8 2.1-15.91 4.502-23.714 6.904-2.7.9-1.5 5.102 1.2 4.2 7.8-2.4 15.6-4.8 23.712-6.904 2.704-.598 1.502-5.1-1.198-4.2Zm-47.726 14.408a272.419 272.419 0 0 1-27.916 7.504 2.282 2.282 0 0 0-1.5 2.7 2.14 2.14 0 0 0 1.032 1.325 2.143 2.143 0 0 0 1.67.177 240.358 240.358 0 0 0 27.914-7.504 2.197 2.197 0 0 0 1.824-1.856 2.205 2.205 0 0 0-2.118-2.515 2.215 2.215 0 0 0-.906.169Zm-52.228 9.904a27.281 27.281 0 0 1-23.712-6 2.334 2.334 0 1 0-3.302 3.302 31.097 31.097 0 0 0 13.2 6.904 36.142 36.142 0 0 0 15 0 2.286 2.286 0 0 0 1.502-2.702c.014-1.204-1.488-1.804-2.688-1.504Z"/>
</svg>
