<svg xmlns="http://www.w3.org/2000/svg" width="381" height="380" fill="none" viewBox="0 0 381 380">
  <path fill="#35927B" fill-rule="evenodd" d="M133.764 76.382c.218 4.66 1.4 5.964.962 7.2-.438 1.236-6.756 22.698-7.362 26.218.684 9.428 1.74 21.744 3.108 24.726 1.552-5.094 5.56-17.458 8.308-21.092-1.552-11.68-2.236-28.546-1.646-29.914a18.133 18.133 0 0 1 6.01-5.248 79.72 79.72 0 0 0-3.292-7.626c-2.672 2.134-5.358 4.184-6.088 5.736Z" clip-rule="evenodd"/>
  <path fill="#191919" fill-rule="evenodd" d="M137.74 37.476c-.976.828-4.334 1.568-4.814-1.04-.156-.824-1.056-.84-1.166 0-.418 3.852 5.638 4.426 7.16 2.096.45-.684-.32-1.782-1.18-1.056Zm-2.22-14.18a6.03 6.03 0 0 0-3.092-.358c-1.678.326-1.786 2.128.2 2.144.75.033 1.494.142 2.222.326 1.55.31 1.408-1.832.67-2.112Zm10.762 2.422a6.23 6.23 0 0 0-4.38-.854c-1.2.28-1.18 1.88.25 2.036 1.15.08 2.276.369 3.322.854 1.43.574 1.942-1.118.808-2.036Zm-4 4.334c-1.242-.2-1.754 3.106-.574 3.262 1.18.156 1.56-3.104.582-3.262h-.008ZM132.87 28.5c-1.132-.086-1.552 3.246-.418 3.37 1.134.124 1.562-3.286.426-3.37h-.008ZM144.014 42c1.228-1.102 2.036.558 1.554 1.134a7.125 7.125 0 0 1-7.626 2.236c-1.428-.358-1.554-1.708 0-1.554a6.884 6.884 0 0 0 6.072-1.848V42ZM159.4 62.11c-.6-.764-1.242-.778-2.174-.172a62 62 0 0 1-17.084 7.766 24.574 24.574 0 0 1-5.094-5.716c-.7-1.242-2.112 0-1.554.948a25.906 25.906 0 0 0 4.66 5.716 24.66 24.66 0 0 1-5.156 4.86 24.699 24.699 0 0 1-.84-8.356c-.14-.8-1.366-1.894-1.676 2.58a18.032 18.032 0 0 0 1.024 8c.964 2.128 5.328-3.106 7.766-5.296.6 1.366 3.106 8.294 4.986 7.968 3.774-.638 10.872-4.164 12.658-7.222a.825.825 0 0 0-1.088-1.134c-2.532 1.366-3.106 3.494-11.43 6.32a43.77 43.77 0 0 1-3.4-6.91 85.71 85.71 0 0 0 17.4-7.766c.946 1.288 2.748 4.332 3.944 4 1.32-.322-2.452-4.952-2.942-5.586Z" clip-rule="evenodd"/>
  <path fill="#191919" fill-rule="evenodd" d="M146.8 50.988c-4.814 3.106-9.878 4.412-15.158 1.724-2.564-1.288-2.718-2.05-2.718-4.908.122-9.418.976-18.811 2.556-28.096.2-1.242-1.708-1.708-1.91-.466-.652 4.24-3.758 27.786-2.33 31.98 1.368 3.944 6.88 5.218 10.6 5.218-.434 2.02-.87 4.038-1.288 6.072-.11.498 1.258 2.642 2.282-1.226.436-1.646.746-3.324 1.134-4.986a13.02 13.02 0 0 0 8-3.82c.682-.778-.234-2.082-1.166-1.554l-.002.062Zm19.632-28.826c3.246 2.236 1.18 7.952-1.242 8.6 1.94 2.656-2.066 12.1-7.238 11.866-.108 2.238-.838 10.282-1.102 18.234 0 .902-1.554.7-1.71-.124-.528-2.268.73-18.42 1.088-19.848.544-2.128 2.236-1.2 3.944-3.496 4.132-5.6-1.724-9-4.1-4.55-1.086 2.034-5.514-3.526-6.212-12-6.476-.668-17.908-2.096-21.418-4.66a4.844 4.844 0 0 1-1.507-5.873 4.844 4.844 0 0 1 5.405-2.747C131.8.542 141 1.49 142.896 4.58c.248-5.14 14.662-5.218 14.288 2.502 5.6-3.386 11.774 4.86 7.518 7.874 4.298-.218 5.996 5.886 1.724 7.206h.006ZM376.27 375.6c-122.6.054-247.508.6-369.646.544a1.132 1.132 0 0 0-.802 1.936c.213.213.501.332.802.332 122.154 1.32 247.106.154 369.646.14 1.756-.006 1.896-2.952 0-2.952ZM82.168 355.342c-11.228 9.2-31.062 11.276-31.884 17.084-.156 1.18 52.06.264 52.432-.434 2.066-3.868-1.132-14.274-1.226-15.532a66.809 66.809 0 0 1-19.322-1.164v.046Zm133.896-7.068c-1.272 4.908-4.412 13.4-5.6 14.2-1.188.8-12.55 4.536-14.412 11.214-.266.948 19.322.574 24.524-3.54 5.202-4.114 20.686-18.532 20.888-20.2.202-1.668-6.582-10.298-9.318-11.756-1.512 2.908-9.604 10.082-16.082 10.082ZM239.2 185.258c-1.028-1.134-2.346-.2-1.554 1.2 1.304 2.362 3.71 5.56 5.2 5.2a43.618 43.618 0 0 0 13.8-7.2c1.554-1.024-.31-3.634-1.446-5.902-1.412-2.888-2.436-1.272-2.514-.9-.218.932 1.942 4.66 2.47 5.452a89.705 89.705 0 0 1-12.348 6.584 34.966 34.966 0 0 1-3.608-4.434Zm29.072 7.532a11 11 0 0 1-2.296 11.618c-.8.854-2.424 0-1.8-1.134a20.094 20.094 0 0 0 2.4-4.956c1.724-7.16-5.92-9.318-8.62-11.306a.882.882 0 0 1-.237-1.04.887.887 0 0 1 .935-.514 16 16 0 0 1 9.61 7.342l.008-.01Zm-12.8 13.326c-1.8-.746-6.834-.078-8.824-3.37-1.552-2.548-.326-5.934-.9-8.87-.2-1.04-1.832-.76-1.846.312-.11 6.446-2.4 13.092 9.97 13.978 2.216.124 2.792-1.554 1.596-2.05h.004Z" clip-rule="evenodd"/>
  <path fill="#35927B" fill-rule="evenodd" d="M326.228 234.786c-8.65-3.386-31.902 8.8-39.542 13.686-6.664-12.814-19.074-35.272-26.4-46.954 2.874-4.52-4.458-8.138-6.926-3.696a3.838 3.838 0 0 0 .55 4.497 3.842 3.842 0 0 0 4.45.847c25.084 46.702 50.6 93.576 74.084 141.07a1.561 1.561 0 0 0 1.622.891 1.56 1.56 0 0 0 .616-.223c8.122-4.4 16.898.668 19.77 5.964 3.372-1 20.674-7.502 24.944-16.184 4.27-8.682-15.158-38.254-21.48-51.642-.204 0-20.222-43.772-31.688-48.256Zm20.984 114.188c10.264 5.176 11.042 22.566-6.834 24.212-8.636.8-18.42-12.844-9.6-21.632a14.322 14.322 0 0 1 16.434-2.58Zm4.2 12.658c-.558 4.658-4.472 7.688-9.102 8.542-8.588 1.552-15.142-9.444-10.436-15.734 6.142-8.216 20.824-3.478 19.546 7.192h-.008ZM365 338.52c-15.906-32.6-32.616-65.386-49.466-97.628-.576-1.074 1.288-2.066 1.878-1.026 18.344 32.428 34.17 63.928 50.446 97.568.848 1.766-2.004 2.848-2.858 1.086Z" clip-rule="evenodd"/>
  <path fill="#191919" fill-rule="evenodd" d="M75.894 195.586c-1.74-1.694-7.766.886-9.148-2.656-.916-2.33 5.2-4.55 6.212-6.336a.918.918 0 0 0-1.01-1.352 16.943 16.943 0 0 0-4.504 2.826c-5.948 4.148-2.454 8.682 2.548 9.32 1.304.154 5.048.528 5.964-.264a1.089 1.089 0 0 0 .329-.777 1.085 1.085 0 0 0-.329-.777l-.062.016Zm16.044-7.766c.342.838-2.438 4.94-3.588 4.442-2.92-1.212-16.898-8.03-16.386-10.374a14.325 14.325 0 0 1 3.106-4.66c.56-.622 1.554.14 1.306.854-.312 1.04-2.516 3.588-2.424 3.914.218.76 13.636 7.952 14.584 8.372.512-.8.978-2.036 1.554-2.8a1.091 1.091 0 0 1 1.168-.308c.135.047.26.119.366.214.354.326.274.59.314.346Zm-5.738 5.84c-1.552-.156-1.552 2.904-1.972 4.55-.342 1.166-.744 2.33-1.148 3.496-.404 1.166 1.63 2.92 3.432-2.906.316-1.056 1.668-4.94-.312-5.14Zm-8.82 13.51a8.676 8.676 0 0 0 3.214-2.436c1.29-1.678 3.526-.282 1.166 2.19-3.924 4.076-6.886 1.376-4.39.246h.01Zm-3.356-2.39c-.482.2-1.086.6-.978 1.226.434 2.658 7.906-1.878 5.6-3.57-1.038-.772-1.72.946-4.658 2.344h.036Zm.234-4.256c-1.088-.978-2.376 1.228-4.38 2.098-.668.278-2.036.59-1.818 1.552.6 2.704 8.154-1.926 6.212-3.68l-.014.03Zm-6.772-.698c1.01-.854 1.816-1.056 2.144-.28.93 2.112-3.728 4-5.856 2.05-1.662-1.552-1.336-5.342.466-4.66.776.296.466 1.756.822 2.518a1.543 1.543 0 0 0 1.114.794 1.553 1.553 0 0 0 1.31-.394v-.028Z" clip-rule="evenodd"/>
  <path fill="#191919" fill-rule="evenodd" d="M129.338 138.322c-7.176-20.2-4.94-57.156-1.57-68.68.374-1.32-15.314 6.678-18.638 14.18-3.324 7.502-9.93 44.498-12.3 50.026-2.37 5.528-20.642 39.512-21.23 40.118-.588.606 17.956 14.32 19.228 13.434.854-.6 6.088-7.222 9.708-12 4.372-46.266 2.376-47.266 5.746-70.092a.662.662 0 0 1 .451-.652.662.662 0 0 1 .547.051.67.67 0 0 1 .322.725c-.8 8.88-3.342 61.776-3.556 65.278-.326 5.312-4.054 31.45-3.106 32.864.746 1.04 10.872 1.912 13.388 0s9.782-21.02 10.672-22.354c-2.428-6.322-1.838-31.918.338-42.898Zm103.2-7.906c3.928 6.212 20.346 41.128 20.548 43.1.202 1.972-16.884 11.368-18.25 10.6-1.366-.768-25-36.964-28.142-40.894-4.872-6.096-30.39-22.918-39.094-27.022-.84-.4-1.662.854-.87 1.412 4.846 3.418 9.83 6.214 14.94 9.832 3.232 41.2 13.638 74.334 11.928 75.856-1.304 1.164-45.242 2.562-49.2 1.382-3.958-1.18-12.938-18.048-13.98-26.684-1.042-8.636-1.428-31.234 1.336-40.382 7.674-25.502 27.958-67.84 32.104-68.446 4.146-.606 21.262 9.32 25.502 12.534 11.532 8.616 45.052 49.646 43.184 48.712h-.006Zm-97.206 24.306a2.223 2.223 0 0 0 4.4.28c.648-6.026-5.424-5.25-4.4-.28Zm4.986 17.178c1.076-3.4-3.278-6.958-4.084-2.128-.684 4.028 3.082 5.29 4.084 2.128Zm30.068-84.568c2.238-1.088-1.848-11.494-2.686-13.28-.436-.916-1.554-.574-1.18.436a36.852 36.852 0 0 1 2.468 11.166 37.169 37.169 0 0 0-5.498 2.6c-7.936 4.35-6.056 3.8-2.5 12.426.668 1.552 1.352 2.6.14 3.96-8.914 10.048-19.46 22.816-24.694 34.976-.4.916.668 1.306 1.132.466 8.356-15.05 14.352-21.744 24.852-33.75 2.4-2.764 1.66-3.106-.668-9.07-2.2-5.576-3.76-3.944 8.666-9.924l-.032-.006Zm-47.262 44.326c-10.168-28.702-10-24.892-7.236-30.612.59-1.242 2.282-3.246 1.786-4.022-3.108-4.956-5.11-5.484-3.108-9.522a55.99 55.99 0 0 1 6.586-10.436c.622-.8 1.554-.156 1.026.652a85.412 85.412 0 0 0-6.694 11.432c-.886 2.966 4.954 6.91 4.2 8.51-4.658 9.63-4.4 6.074-.916 16.728 1.88 5.684 3.868 11.338 5.546 17.084.318.838-.852 1.128-1.19.186Z" clip-rule="evenodd"/>
  <path fill="#191919" fill-rule="evenodd" d="M233.382 333.07c-1.34-1.536-27.474-64.114-28.84-67.842-1.366-3.728-17-51.642-18.158-57.962-4.94.6-38.332 2.066-42.976 0-3.618-1.554-11.99-14.91-13.28-21.464a135.885 135.885 0 0 1-10.11 19.692c-1.4 1.85-9.708 2.362-12.954 1.4-.372 1.212-15.934 63.82-16.912 70.482-.978 6.662-10.252 67.7-10.872 73-.218 1.552 24.026 4.27 24.182 2.2.156-2.07 16.572-66.366 17.55-68.916.978-2.55 18.388-39.66 26.108-52.648-3.556-8.152-3.308-10.7-11.556-13.884-1.148-.45-.558-1.554.6-1.258 6.304 1.554 8.418 3.712 10.732 8.636 7.424 15.732 15 40.94 23.374 53.474 2.64 3.976 40 65.916 42.372 68.12 2.372 2.204 22.042-11.538 20.74-13.03Z" clip-rule="evenodd"/>
  <path fill="#35927B" fill-rule="evenodd" d="M92.124 226.694c-.888-1.768-51.254-32.614-54.142-32.226-3.8.434-38.55 43.706-37.974 46.344.576 2.638 69.456 42.666 71.816 42.23 2.36-.436 21.176-54.59 20.3-56.348Zm-8.838-13.542c-1.412 5.98-3.478 4.038-3.23 2.718.4-2.268 1.01-4.52 1.554-6.742.418-1.552 1.66-1.832 2.236-.884.576.948-.358 3.742-.622 4.908h.062Zm-20.982-18.964c.522 1-.512.8-1.988 1.32-3.62 1.32-4.132 6.772-6.088 5.654-1.71-1 3.664-7.222 5.094-7.938a2.228 2.228 0 0 1 2.982.964Zm15.142 57.87L70.022 248a15.49 15.49 0 0 1-1.988 3.48 14.286 14.286 0 0 1-5.048-2.424c0-.124.668-1.972 1.554-4.084L37.686 230.36a21.276 21.276 0 0 1-2.95 4.132 17.888 17.888 0 0 1-5.732-3.306 36.391 36.391 0 0 1 2.532-4.242c-3.2-1.8-6.4-3.62-9.536-5.498-1.166-.684 0-2.284 1.086-1.724 3.324 1.63 6.586 3.338 9.848 5.062a23.09 23.09 0 0 1 2.686-3.68 17.685 17.685 0 0 1 5.452 3.106 20.581 20.581 0 0 1-1.988 3.8l26.4 14.368a14.663 14.663 0 0 1 1.988-3.962 20.494 20.494 0 0 1 5.544 2.934 31.19 31.19 0 0 1-1.8 4.134l7.766 4.2c1.494.898.018 3.212-1.536 2.374Z" clip-rule="evenodd"/>
</svg>
