<svg xmlns="http://www.w3.org/2000/svg" width="198" height="48" fill="none" viewBox="0 0 198 48">
  <path fill="#35927B" fill-rule="evenodd" d="M35.5 5a4 4 0 0 0-4 4v16.81c0 .68.17 1.322.47 1.884 1.062-1.046 2.586-1.702 4.28-1.702 1.694 0 3.218.656 4.28 1.702.3-.562.47-1.203.47-1.885V9a4 4 0 0 0-4-4h-1.5Z" clip-rule="evenodd"/>
  <circle cx="5.639" cy="9.75" r="4.75" fill="#35927B"/>
  <circle cx="36.25" cy="40.361" r="4.75" fill="#35927B"/>
  <path fill="#35927B" fill-rule="evenodd" d="M12.5 14.5c1.271-1.083 2.093-2.808 2.093-4.75 0-1.942-.822-3.667-2.093-4.75h21.111c-1.016 1.083-1.673 2.808-1.673 4.75 0 1.942.657 3.667 1.673 4.75H12.5Z" clip-rule="evenodd"/>
  <path fill="#35927B" fill-rule="evenodd" d="M41 33.5c-1.083-1.271-2.808-2.093-4.75-2.093-1.942 0-3.667.822-4.75 2.093V12.389c1.083 1.016 2.808 1.674 4.75 1.674 1.942 0 3.667-.658 4.75-1.674V33.5Z" clip-rule="evenodd"/>
  <path fill="#000" d="M54.215 19.22h9.89v3.225h-9.89V19.22Zm3.225-6.88h3.44V39h-3.44V12.34Zm13.555 6.88V39h-3.44V19.22h3.44Zm5.977 3.784c-.459-.344-.874-.588-1.247-.731-.373-.172-.846-.258-1.419-.258-.86 0-1.534.215-2.02.645-.488.43-.832 1.018-1.033 1.763-.172.745-.258 1.591-.258 2.537h-1.548c0-1.577.272-2.967.817-4.171.573-1.233 1.304-2.207 2.193-2.924.889-.717 1.792-1.075 2.71-1.075.716 0 1.375.1 1.977.301.63.172 1.204.53 1.72 1.075l-1.892 2.838Zm6.87 9.89c0 .745.172 1.39.516 1.935.373.545.875.96 1.505 1.247.66.258 1.405.387 2.236.387 1.061 0 2.007-.215 2.838-.645.86-.43 1.534-1.032 2.021-1.806.516-.803.774-1.72.774-2.752l.688 2.58c0 1.261-.387 2.308-1.16 3.139-.746.831-1.678 1.448-2.796 1.849a9.397 9.397 0 0 1-3.268.602 8.04 8.04 0 0 1-3.397-.731 6.364 6.364 0 0 1-2.494-2.193c-.63-.946-.946-2.093-.946-3.44 0-1.92.674-3.454 2.021-4.601 1.376-1.175 3.283-1.763 5.72-1.763 1.433 0 2.622.172 3.568.516.975.315 1.749.688 2.322 1.118.574.401.96.731 1.161.989v2.021c-1.003-.688-2.035-1.175-3.096-1.462a11.865 11.865 0 0 0-3.397-.473c-1.118 0-2.035.143-2.752.43-.688.287-1.204.688-1.548 1.204-.344.516-.516 1.132-.516 1.849Zm-.516-9.116-1.677-2.537c.746-.545 1.763-1.09 3.053-1.634 1.319-.545 2.896-.817 4.73-.817 1.548 0 2.896.244 4.042.731 1.176.459 2.079 1.132 2.71 2.021.659.889.988 1.978.988 3.268V39h-3.44V25.283c0-.688-.114-1.247-.344-1.677a2.561 2.561 0 0 0-.989-1.075 4.2 4.2 0 0 0-1.419-.559 8.33 8.33 0 0 0-1.72-.172c-.974 0-1.863.115-2.666.344-.774.23-1.433.502-1.978.817-.544.315-.974.588-1.29.817Zm32.355 3.182c0-1.634-.358-2.867-1.075-3.698-.716-.831-1.763-1.247-3.139-1.247-1.003 0-1.892.215-2.666.645a4.425 4.425 0 0 0-1.763 1.72c-.401.745-.602 1.605-.602 2.58V39h-3.44V19.22h3.44v3.096c.66-1.204 1.477-2.093 2.451-2.666 1.004-.573 2.15-.86 3.44-.86 2.093 0 3.741.702 4.945 2.107 1.233 1.376 1.849 3.254 1.849 5.633V39h-3.44V26.96Zm10.724 5.977c.402.602.86 1.161 1.376 1.677a6.354 6.354 0 0 0 1.763 1.247c.688.287 1.434.43 2.236.43.975 0 1.735-.215 2.279-.645.574-.459.86-1.075.86-1.849 0-.688-.229-1.261-.688-1.72-.43-.487-.989-.889-1.677-1.204a21.946 21.946 0 0 0-2.193-.946 30.139 30.139 0 0 1-2.623-1.204 7.612 7.612 0 0 1-2.193-1.849c-.573-.774-.86-1.734-.86-2.881 0-1.175.301-2.15.903-2.924a5.648 5.648 0 0 1 2.408-1.72 8.828 8.828 0 0 1 3.096-.559 8.38 8.38 0 0 1 2.967.516 8.725 8.725 0 0 1 2.494 1.376 6.427 6.427 0 0 1 1.677 1.978l-2.752 1.763a6.731 6.731 0 0 0-2.064-1.849c-.802-.487-1.72-.731-2.752-.731-.716 0-1.333.158-1.849.473-.516.315-.774.803-.774 1.462 0 .516.201.975.602 1.376.402.401.918.76 1.548 1.075.631.315 1.29.616 1.978.903 1.147.459 2.193.96 3.139 1.505.946.516 1.692 1.147 2.236 1.892.574.745.86 1.706.86 2.881 0 1.72-.63 3.153-1.892 4.3-1.232 1.147-2.866 1.72-4.902 1.72-1.318 0-2.508-.23-3.569-.688-1.06-.487-1.963-1.104-2.709-1.849-.716-.745-1.261-1.505-1.634-2.279l2.709-1.677Zm16.526-21.887c0-.66.229-1.218.688-1.677.487-.459 1.046-.688 1.677-.688.659 0 1.218.23 1.677.688a2.28 2.28 0 0 1 .688 1.677c0 .63-.229 1.19-.688 1.677a2.283 2.283 0 0 1-1.677.688c-.631 0-1.19-.23-1.677-.688-.459-.487-.688-1.046-.688-1.677Zm.645 8.17h3.44V39h-3.44V19.22Zm7.515 0h9.89v3.225h-9.89V19.22Zm3.225-6.88h3.44V39h-3.44V12.34Zm9.685 17.415v-3.44h20.855v3.44h-20.855Zm8.6-12.255h3.655v21.07h-3.655V17.5Z"/>
  <path fill="#35927B" d="M28 5h9v2h-9z"/>
</svg>
