<svg width="37" height="37" viewBox="0 0 37 37" fill="none" xmlns="http://www.w3.org/2000/svg">
<path fill-rule="evenodd" clip-rule="evenodd" d="M32.25 0C29.7647 0 27.75 2.01472 27.75 4.5V19.6563C27.75 20.4904 27.977 21.2716 28.3726 21.9414C29.3959 21.0138 30.8113 20.4399 32.375 20.4399C33.9387 20.4399 35.3541 21.0138 36.3774 21.9414C36.773 21.2716 37 20.4904 37 19.6563V4.5C37 2.01472 34.9853 0 32.5 0H32.25Z" fill="#000"/>
<ellipse cx="4.5" cy="4.625" rx="4.5" ry="4.625" fill="#000"/>
<circle cx="32.5" cy="32.5" r="4.5" fill="#000"/>
<path fill-rule="evenodd" clip-rule="evenodd" d="M10 9.25C11.1924 8.19524 11.9636 6.51616 11.9636 4.625C11.9636 2.73384 11.1924 1.05476 10 0H29.8055C28.8521 1.05476 28.2354 2.73384 28.2354 4.625C28.2354 6.51616 28.8521 8.19524 29.8055 9.25H10Z" fill="#000"/>
<path fill-rule="evenodd" clip-rule="evenodd" d="M37 27C35.9452 25.8076 34.2662 25.0364 32.375 25.0364C30.4838 25.0364 28.8048 25.8076 27.75 27L27.75 7.19442C28.8048 8.14787 30.4838 8.76457 32.375 8.76457C34.2662 8.76457 35.9452 8.14787 37 7.19442L37 27Z" fill="#000"/>
<rect x="23.6389" width="8.73611" height="9.25" fill="#000"/>
</svg>
